<svg xmlns="http://www.w3.org/2000/svg" viewBox="0 0 161.29 66.47"><defs><style>.cls-1{fill:#fff}</style></defs><g id="layer_2" data-name="layer 2"><g id="layer_1-2" data-name="layer 1"><path d="M14.81 38.13c-.18 0-.73-.05-2.87-.05s-2.9 0-3.09.05h-.28a.37.37 0 0 1-.38-.37v-1.12a.38.38 0 0 1 .38-.38h1.07L9.13 35H5l-.5 1.26h1.06a.38.38 0 0 1 .38.38v1.12a.37.37 0 0 1-.38.37h-.18c-.17 0-.62-.05-2.39-.05H.75a.36.36 0 0 1-.37-.37v-1.07a.37.37 0 0 1 .37-.38h1.62c3.68-9.34 4.34-10.87 4.53-11.18.19-.29.63-.33 1-.33a1.2 1.2 0 0 1 1 .29c.06 0 .1.06 1.28 3 .76 1.88 1.52 3.76 2.26 5.64l1 2.58H15a.38.38 0 0 1 .38.38v1.12a.37.37 0 0 1-.38.37Zm-7.73-5h1.29l-.73-1.79c-.26-.65-.44-1.12-.58-1.44l-1.29 3.19Z"/><path class="cls-1" d="M7.88 25.12a.93.93 0 0 1 .67.17s.45 1 1.21 2.88 1.52 3.76 2.27 5.64l1.1 2.79a4.74 4.74 0 0 0 .94 0H15v1.12h-.2c-.25 0-1.21-.06-2.87-.06s-2.85 0-3.14.06h-.22v-1.08h.81a6.93 6.93 0 0 0 .8 0l-.8-2H4.77l-.4 1c-.27.66-.4 1-.42 1a3.49 3.49 0 0 0 .8 0h.81v1.12h-.18A23.8 23.8 0 0 0 3 37.7a16.25 16.25 0 0 0-2.08.06H.75v-1.12h.94a4.74 4.74 0 0 0 .94 0q4.43-11.23 4.58-11.35c.07-.11.3-.17.67-.17m-2.66 8.35h3.71L8 31.15c-.6-1.52-.92-2.28-.94-2.28q-1.83 4.56-1.83 4.6m2.66-9.1a1.45 1.45 0 0 0-1.29.5c-.27.45-1 2.24-4.48 11H.75a.75.75 0 0 0-.75.75v1.12a.76.76 0 0 0 .75.75h4.81a.75.75 0 0 0 .75-.75v-1.1a.74.74 0 0 0-.75-.75h-.5l.21-.52h3.6l.22.55h-.52a.74.74 0 0 0-.75.75v1.12a.75.75 0 0 0 .75.75H15a.75.75 0 0 0 .75-.75v-1.15a.74.74 0 0 0-.75-.75h-1.35l-.93-2.34c-.75-1.89-1.5-3.77-2.26-5.66-1.13-2.79-1.23-3-1.41-3.16a1.71 1.71 0 0 0-1.17-.35Zm-1.57 8.35c.17-.43.41-1 .74-1.87l.23.58.53 1.28h-1.5Z"/><path d="M9.83 24.41a.78.78 0 0 1-.48-.17.8.8 0 0 1-.26-.53A1.2 1.2 0 0 1 9.4 23H4.12a.4.4 0 0 1-.21-.07.78.78 0 0 1-.39-.65.9.9 0 0 1 .34-.63.39.39 0 0 1 .27-.11H10a1.76 1.76 0 0 1-.18-.69.8.8 0 0 1 .18-.5.7.7 0 0 1 .56-.24.67.67 0 0 1 .48.2.94.94 0 0 1 .27.49 1.45 1.45 0 0 0 .59.84.75.75 0 0 1 .38.64.65.65 0 0 1-.17.48 1.89 1.89 0 0 1-.34.23 3.71 3.71 0 0 0-1.24 1l-.39-.12.3.22-.12.15a.68.68 0 0 1-.36.15Z"/><path class="cls-1" d="M10.55 20.45a.3.3 0 0 1 .22.1.72.72 0 0 1 .18.34 1.71 1.71 0 0 0 .74 1 .39.39 0 0 1 .2.33.32.32 0 0 1-.05.21 1.42 1.42 0 0 1-.26.17 3.85 3.85 0 0 0-1.35 1.14.57.57 0 0 0-.1.11.45.45 0 0 1-.13.15h-.12a.36.36 0 0 1-.29 0 .43.43 0 0 1-.13-.27c0-.23.29-.59.86-1.07H4.13c-.16-.11-.24-.22-.24-.34s.08-.21.24-.37h6.49a2.21 2.21 0 0 1-.43-1.06.41.41 0 0 1 .09-.26.34.34 0 0 1 .27-.11m0-.75a1.11 1.11 0 0 0-.85.38 1.15 1.15 0 0 0-.26.74 1.71 1.71 0 0 0 0 .31H4.13a.75.75 0 0 0-.53.22 1.3 1.3 0 0 0-.46.9 1.15 1.15 0 0 0 .56 1 .77.77 0 0 0 .42.13H8.76a1.19 1.19 0 0 0 0 .32v.07a1.12 1.12 0 0 0 1.11 1h.16a.84.84 0 0 0 .58-.26 1 1 0 0 0 .16-.18l.09-.1a3.37 3.37 0 0 1 1.1-.94 1.72 1.72 0 0 0 .45-.3 1 1 0 0 0 .27-.74 1.12 1.12 0 0 0-.55-1 1 1 0 0 1-.42-.6 1.39 1.39 0 0 0-.4-.7 1.08 1.08 0 0 0-.72-.29Z"/><path d="M26.61 32.21h-.11a.72.72 0 0 1-.55-.72.76.76 0 0 1 .46-.7.32.32 0 0 1 .16 0H38.1a.48.48 0 0 1 .18 0 .78.78 0 0 1 .47.7.77.77 0 0 1-.44.67.41.41 0 0 1-.19.05H26.61Z"/><path class="cls-1" d="M38.1 31.12a.42.42 0 0 1 .28.36c0 .13-.09.24-.26.34H26.61a.36.36 0 0 1-.29-.36.39.39 0 0 1 .25-.36H38.1m0-.75H26.57a.75.75 0 0 0-.33.07 1.14 1.14 0 0 0-.67 1 1.11 1.11 0 0 0 .82 1.08.78.78 0 0 0 .22 0h11.51a.69.69 0 0 0 .37-.1 1.13 1.13 0 0 0 .64-1 1.17 1.17 0 0 0-.67-1 .86.86 0 0 0-.36-.08Z"/><path d="M26.57 35.73a.47.47 0 0 1-.16 0A.76.76 0 0 1 26 35a.72.72 0 0 1 .55-.72h11.57a.41.41 0 0 1 .22.07.84.84 0 0 1 .41.67.75.75 0 0 1-.49.7.42.42 0 0 1-.16 0Z"/><path class="cls-1" d="M38.12 34.63c.17.12.26.24.26.36a.4.4 0 0 1-.28.36H26.57a.39.39 0 0 1-.25-.36.36.36 0 0 1 .29-.36h11.51m0-.75H26.61a.78.78 0 0 0-.22 0 1.11 1.11 0 0 0-.82 1.12 1.13 1.13 0 0 0 .67 1 .76.76 0 0 0 .33.08H38.1a.71.71 0 0 0 .32-.07 1.14 1.14 0 0 0 .71-1 1.17 1.17 0 0 0-.57-1 .77.77 0 0 0-.44-.14Z"/><path d="M52.07 66.09a.38.38 0 0 1-.37-.37V.75a.38.38 0 0 1 .37-.38h6.28a.38.38 0 0 1 .38.38v1.52a.38.38 0 0 1-.38.38H54v61.17h4.38a.38.38 0 0 1 .38.38v1.52a.38.38 0 0 1-.38.37Z"/><path class="cls-1" d="M58.35.75v1.52h-4.76V64.2h4.76v1.52h-6.28V.75h6.28m0-.75h-6.28a.76.76 0 0 0-.75.75v65a.76.76 0 0 0 .75.75h6.28a.75.75 0 0 0 .75-.75V64.2a.74.74 0 0 0-.75-.75h-4V3h4a.75.75 0 0 0 .75-.75V.75a.75.75 0 0 0-.75-.75Z"/><path d="M107.46 14.7H103a.39.39 0 0 1-.27-.11.62.62 0 0 1-.22-.43s0-.17 0-.37a1.75 1.75 0 0 1 .17-.45.2.2 0 0 1 .09-.09.63.63 0 0 1 .3-.13h.36a3.22 3.22 0 0 0 .77-.12l-.18-2.16h-3.74l-.51.87a6.85 6.85 0 0 0-.69 1.3 1.4 1.4 0 0 0 .49.11.59.59 0 0 1 .67.57 3 3 0 0 1 0 .3 1.44 1.44 0 0 1-.18.49.65.65 0 0 1-.54.22h-3.78a.39.39 0 0 1-.27-.11.66.66 0 0 1-.23-.46 1.15 1.15 0 0 1 .39-.94.34.34 0 0 1 .22-.07h.25a1.84 1.84 0 0 0 1.54-.74c.09-.13.61-1 3.26-5.5 3.18-5.43 3.22-5.49 3.24-5.52a.81.81 0 0 1 .74-.37h.45a.36.36 0 0 1 .31.17c.12.18.18.26.18.39l.5 5.81c.35 4 .47 5.3.52 5.7a3.65 3.65 0 0 0 .83.06c.72 0 .82.35.82.55a1.29 1.29 0 0 1-.06.35 1.54 1.54 0 0 1-.14.44.7.7 0 0 1-.54.24h-.28Zm-5-5.44h1.46c0-.37-.08-1.08-.19-2.43-.06-.69-.1-1.19-.14-1.56l-2.35 4Z"/><path class="cls-1" d="M105.32 1.37a.71.71 0 0 1 .11.18l.51 5.84q.51 5.85.54 5.9c.06.14.45.2 1.18.2q.45 0 .45.18v.26a1 1 0 0 1-.1.32s-.1.06-.25.07H103c-.08-.07-.11-.12-.11-.16v-.32a1.6 1.6 0 0 1 .11-.29l.08-.06h.36c.65 0 1-.14 1.16-.31l-.22-2.71h-4.31l-.61 1a5.74 5.74 0 0 0-.73 1.53c0 .28.28.45.84.5.21 0 .32.07.32.2v.24a1.21 1.21 0 0 1-.11.32.3.3 0 0 1-.24.07h-3.78a.33.33 0 0 1-.13-.19.89.89 0 0 1 .24-.64h.25a2.2 2.2 0 0 0 1.85-.9q.11-.12 3.27-5.52c2.12-3.61 3.19-5.44 3.23-5.49a.45.45 0 0 1 .43-.21h.45m-2.88 8.27h1.87s-.07-1.08-.22-2.82-.23-2.64-.25-2.65l-.49.78-1.14 1.94-1.63 2.75h1.86m2.88-9h-.45a1.21 1.21 0 0 0-1.08.58c-.13.21-.65 1.1-3.22 5.49s-3.15 5.28-3.25 5.4v.05a1.42 1.42 0 0 1-1.26.57h-.22a.69.69 0 0 0-.44.15 1.58 1.58 0 0 0-.55 1.18v.06a1 1 0 0 0 .35.72.71.71 0 0 0 .53.22h3.8a1 1 0 0 0 .84-.37 1.4 1.4 0 0 0 .24-.62v-.39a1 1 0 0 0-1-.95c.1-.18.25-.45.48-.84l.4-.68h3.19l.12 1.49h-.73a.72.72 0 0 0-.45.15l-.08.06a1 1 0 0 0-.17.18 1.72 1.72 0 0 0-.2.49s0 .08 0 .12a4.15 4.15 0 0 0 0 .42 1 1 0 0 0 .33.7.74.74 0 0 0 .53.21h4.74a1 1 0 0 0 .82-.4 1.46 1.46 0 0 0 .2-.6 1.66 1.66 0 0 0 .07-.4c0-.15-.06-.93-1.2-.93h-.49c-.06-.62-.2-2.08-.49-5.4l-.5-5.83A1.08 1.08 0 0 0 106 1a.76.76 0 0 0-.63-.33Zm-3.43 8.26 1-1.63.46-.78v.39c.08 1 .14 1.61.17 2h-1.62Z"/><path d="M114.26 14.7h-4.88c-.71 0-.74-.44-.74-.53a1.86 1.86 0 0 1 .06-.34c.08-.28.17-.54.41-.64a1.23 1.23 0 0 1 .41 0h.11a5.19 5.19 0 0 0 1.18-.08 1.65 1.65 0 0 0 .07-.21c.05-.18.24-.93.88-3.54.15-.54.26-1 .33-1.28.48-1.91 1-4.06 1.2-4.81a8.36 8.36 0 0 0-.89 0h-.4a.37.37 0 0 1-.21-.06.71.71 0 0 1-.23-.86 1.65 1.65 0 0 1 .16-.44.62.62 0 0 1 .57-.22h5.21a.4.4 0 0 1 .27.11.68.68 0 0 1 .23.46 2.07 2.07 0 0 1-.06.39.82.82 0 0 1-.27.51 1.06 1.06 0 0 1-.64.11c-.36 0-.74 0-1.13.05a.11.11 0 0 0-.06 0s-.17.53-.87 3.34c-.14.56-.27 1.11-.4 1.64-.8 3.17-1.1 4.39-1.21 4.83h1.28a.36.36 0 0 1 .3.15.61.61 0 0 1 .18.39 3.15 3.15 0 0 1-.06.39 1.28 1.28 0 0 1-.28.54.39.39 0 0 1-.27.11Z"/><path class="cls-1" d="M117.54 2c.08.09.13.15.13.2a1.68 1.68 0 0 1-.06.31.49.49 0 0 1-.13.29 1.21 1.21 0 0 1-.41 0 11.5 11.5 0 0 0-1.16.05.5.5 0 0 0-.34.2c-.09.17-.4 1.32-.93 3.46-.13.56-.26 1.11-.39 1.64q-1.27 5-1.27 5.11c0 .08.06.14.18.16a9.25 9.25 0 0 0 .94.07h.58l.11.16s0 .13-.06.33a.64.64 0 0 1-.18.34h-4.83a1.7 1.7 0 0 0-.4 0c-.2 0-.31-.06-.31-.17a2.17 2.17 0 0 1 .06-.25c.06-.23.12-.36.18-.38a1.31 1.31 0 0 1 .27 0h.11a4.76 4.76 0 0 0 1.38-.12c.06 0 .13-.17.2-.42s.37-1.43.89-3.55c.14-.54.25-1 .32-1.28Q113.73 3 113.72 3a.31.31 0 0 1 0-.09 4.09 4.09 0 0 0-1.28-.1H112c-.11-.08-.14-.23-.08-.46a1.67 1.67 0 0 1 .11-.32s.11-.06.26-.06H117.5m0-.75h-5.21a1 1 0 0 0-.88.39 1.84 1.84 0 0 0-.21.55 1.07 1.07 0 0 0 .38 1.27.77.77 0 0 0 .42.13h.77l-1.08 4.37c-.08.32-.19.74-.33 1.27-.5 2.06-.8 3.24-.88 3.52h-1a1.6 1.6 0 0 0-.51.06 1.21 1.21 0 0 0-.67.9 1.93 1.93 0 0 0-.08.44 1 1 0 0 0 1.06.92h5.23a.71.71 0 0 0 .53-.22 1.46 1.46 0 0 0 .37-.65.29.29 0 0 0 0-.09 3.1 3.1 0 0 0 .07-.46 1 1 0 0 0-.26-.61.74.74 0 0 0-.6-.3h-.81c.16-.65.48-1.93 1.1-4.39.14-.54.27-1.09.4-1.66.49-1.95.71-2.76.81-3.1h.89a1.37 1.37 0 0 0 .83-.17 1.17 1.17 0 0 0 .44-.74 1.86 1.86 0 0 0 .08-.48 1.05 1.05 0 0 0-.35-.73.75.75 0 0 0-.53-.22Z"/><path d="M74.26 38.13H69.79a.36.36 0 0 1-.26-.11.62.62 0 0 1-.22-.42 3.34 3.34 0 0 1 0-.38 1.58 1.58 0 0 1 .17-.45l.08-.09a.72.72 0 0 1 .3-.13h.36a2.61 2.61 0 0 0 .77-.12l-.17-2.15h-3.71l-.5.86a8 8 0 0 0-.7 1.31 1.38 1.38 0 0 0 .48.11.58.58 0 0 1 .66.57 3 3 0 0 1 0 .3 1.11 1.11 0 0 1-.18.49.61.61 0 0 1-.53.22h-3.81a.38.38 0 0 1-.26-.11.69.69 0 0 1-.24-.46 1.22 1.22 0 0 1 .39-.94.44.44 0 0 1 .22-.07h.26a1.8 1.8 0 0 0 1.53-.74c.11-.14.74-1.19 3.26-5.5 3.18-5.43 3.22-5.48 3.25-5.52a.83.83 0 0 1 .73-.37h.46a.39.39 0 0 1 .31.17.71.71 0 0 1 .17.39l.51 5.81c.34 4 .47 5.31.51 5.71a4.87 4.87 0 0 0 .83 0c.72 0 .83.35.83.56a1.4 1.4 0 0 1-.07.34 1.07 1.07 0 0 1-.14.44.62.62 0 0 1-.53.24h-.29Zm-5-5.43h1.47c0-.36-.08-1.07-.2-2.43 0-.68-.1-1.18-.13-1.56l-2.35 4Z"/><path class="cls-1" d="M72.13 24.8a1.59 1.59 0 0 1 .11.18l.5 5.85q.51 5.84.55 5.9c.06.13.45.2 1.17.2q.45 0 .45.18a1.2 1.2 0 0 1 0 .25 2 2 0 0 1-.09.33.4.4 0 0 1-.25.07H69.84a.34.34 0 0 1-.11-.16s0-.15 0-.33a1.24 1.24 0 0 1 .11-.29h.43c.65 0 1-.14 1.16-.31l-.23-2.77h-4.3l-.62 1.1a6.09 6.09 0 0 0-.74 1.47c0 .29.28.46.83.51.22 0 .33.06.33.19a1.71 1.71 0 0 1 0 .24.81.81 0 0 1-.11.33.3.3 0 0 1-.23.07H62.53c-.08-.09-.12-.15-.12-.2a.81.81 0 0 1 .23-.63h.26a2.19 2.19 0 0 0 1.84-.98q.12-.1 3.28-5.52T71.24 25a.46.46 0 0 1 .43-.22h.46m-2.88 8.27h1.86S71 32 70.9 30.23s-.23-2.63-.26-2.64l-.49.77L69 30.3l-1.62 2.75h1.86m2.88-9h-.46a1.21 1.21 0 0 0-1.08.59c-.13.21-.65 1.09-3.22 5.48s-3.11 5.28-3.22 5.44a1.43 1.43 0 0 1-1.26.58h-.22a.77.77 0 0 0-.44.14 1.59 1.59 0 0 0-.54 1.18v.06a1.1 1.1 0 0 0 .34.73.77.77 0 0 0 .53.22h3.79a1 1 0 0 0 .83-.37 1.51 1.51 0 0 0 .24-.62 3.13 3.13 0 0 0 .06-.4 1 1 0 0 0-1-.94c.09-.19.24-.45.48-.84l.4-.69h3.18l.12 1.49h-.75a.74.74 0 0 0-.45.15l-.07.05a.58.58 0 0 0-.17.18 1.67 1.67 0 0 0-.21.49.5.5 0 0 0 0 .12v.43a1 1 0 0 0 .33.69.75.75 0 0 0 .53.22H74.65a1 1 0 0 0 .81-.41 1.6 1.6 0 0 0 .21-.59 1.58 1.58 0 0 0 .06-.4c0-.16 0-.93-1.2-.93h-.49c-.06-.62-.19-2.07-.48-5.4L73 24.93a1 1 0 0 0-.23-.55.74.74 0 0 0-.62-.33Zm-3.44 8.26 1-1.63.46-.78v.39c.08 1 .13 1.61.16 2h-1.61Z"/><path d="M79.57 38.33A3.3 3.3 0 0 1 78 38a2.41 2.41 0 0 1-1.14-2.25 8.18 8.18 0 0 1 .66-2.83 7.85 7.85 0 0 0 .61-2v-.1a.9.9 0 0 0-.47.25 2.38 2.38 0 0 0-.47.65 5 5 0 0 0-.29.7 1.32 1.32 0 0 1-.23.56.77.77 0 0 1-.56.14h-.25a.39.39 0 0 1-.27-.11.62.62 0 0 1-.22-.43 2.15 2.15 0 0 1 .19-.69 9.7 9.7 0 0 1 .48-1 3 3 0 0 1 .9-1 2.28 2.28 0 0 1 1.28-.48 2 2 0 0 1 1.53.58 1.85 1.85 0 0 1 .52 1.32 8.63 8.63 0 0 1-.64 2.15 8.25 8.25 0 0 0-.63 2.4c0 .56.1.77.17.85s.14.17.48.18a1.18 1.18 0 0 0 .73-.23 2.94 2.94 0 0 0 .59-.54l.18-.29.64-2.64c.36-1.46.58-2.31.65-2.55a1.67 1.67 0 0 1 .36-.64 1.38 1.38 0 0 1 .93-.4.94.94 0 0 1 1 .9l-1.38 5.84a1 1 0 0 0 0 .21 1 1 0 0 0 0 .36.22.22 0 0 0 .12 0 .73.73 0 0 0 .26-.34 10.77 10.77 0 0 0 .53-1.57c0-.15.18-.42.72-.42s.72.42.72.54v.3a3.45 3.45 0 0 1-.18.66c-.1.29-.21.56-.32.81a3.22 3.22 0 0 1-.52.78 1.92 1.92 0 0 1-.81.56 2.15 2.15 0 0 1-.55.05 2.06 2.06 0 0 1-1.74-.79l-.23.17-.39.27a1.58 1.58 0 0 1-.67.27l-.64.1Z"/><path class="cls-1" d="M78.21 29.76a1.63 1.63 0 0 1 1.25.45 1.51 1.51 0 0 1 .41 1.07 10.28 10.28 0 0 1-.61 2 8.39 8.39 0 0 0-.62 2.55 1.7 1.7 0 0 0 .26 1.08 1 1 0 0 0 .76.33 1.52 1.52 0 0 0 .91-.31 3.45 3.45 0 0 0 .67-.61l.19-.31s.26-1 .69-2.75c.36-1.45.58-2.3.65-2.54a1.47 1.47 0 0 1 .26-.52 1 1 0 0 1 .65-.27.57.57 0 0 1 .6.52L83 36.24a1.75 1.75 0 0 0 0 .29 1 1 0 0 0 .13.59.51.51 0 0 0 .38.17.85.85 0 0 0 .63-.56 11.67 11.67 0 0 0 .55-1.6c0-.09.14-.14.36-.14s.34 0 .34.16v.26a4 4 0 0 1-.17.57c-.09.28-.2.54-.3.78a2.68 2.68 0 0 1-.46.69 1.48 1.48 0 0 1-.65.45 1.6 1.6 0 0 1-.43 0 1.65 1.65 0 0 1-1.65-1 1.47 1.47 0 0 0-.2.18 2 2 0 0 1-.33.27l-.39.27a1.46 1.46 0 0 1-.53.22l-.61.09a3 3 0 0 1-1.42-.33 2.06 2.06 0 0 1-.94-1.92 7.9 7.9 0 0 1 .54-2.68 8.65 8.65 0 0 0 .63-2.12v-.25a.19.19 0 0 0-.07-.13.27.27 0 0 0-.2-.07h-.07a1 1 0 0 0-.76.34 3.16 3.16 0 0 0-.55.74 5 5 0 0 0-.3.76 2.43 2.43 0 0 1-.15.4.62.62 0 0 1-.29 0h-.25c-.07-.08-.11-.13-.11-.17a2 2 0 0 1 .16-.56 8.6 8.6 0 0 1 .45-.94 2.86 2.86 0 0 1 .8-.9 1.8 1.8 0 0 1 1.07-.4m0-.75a2.61 2.61 0 0 0-1.49.55 3.51 3.51 0 0 0-1 1.14 8.64 8.64 0 0 0-.5 1 2.4 2.4 0 0 0-.21.83 1 1 0 0 0 .33.7.75.75 0 0 0 .53.22h.25a1 1 0 0 0 .82-.26.76.76 0 0 0 .11-.14 8.28 8.28 0 0 0-.56 2.63 2.77 2.77 0 0 0 1.31 2.57 3.77 3.77 0 0 0 1.8.43h.08a6.32 6.32 0 0 0 .67-.1 2.07 2.07 0 0 0 .81-.33l.36-.24a2.84 2.84 0 0 0 2.4.6h.07a2.31 2.31 0 0 0 1-.66 3.27 3.27 0 0 0 .58-.88 8.17 8.17 0 0 0 .33-.84 3.63 3.63 0 0 0 .2-.74v-.19a.76.76 0 0 0 0-.15c0-.34-.23-.91-1.09-.91a1.14 1.14 0 0 0-.85.29l.93-3.87a1.1 1.1 0 0 0 0-.18 1.33 1.33 0 0 0-.31-.81 1.28 1.28 0 0 0-1-.46 1.74 1.74 0 0 0-1.15.46l-.06.06a2 2 0 0 0-.41.81c-.08.25-.3 1.09-.66 2.57-.45 1.81-.6 2.42-.65 2.61l-.13.19a2.07 2.07 0 0 1-.49.44.76.76 0 0 1-.47.17.37.37 0 0 1-.23-.05 1.28 1.28 0 0 1-.09-.61 7.51 7.51 0 0 1 .57-2.3 7.92 7.92 0 0 0 .66-2.28A2.27 2.27 0 0 0 80 29.7a2.33 2.33 0 0 0-1.8-.69Z"/><path d="M88.51 38.33a2.5 2.5 0 0 1-1.22-.33 1.92 1.92 0 0 1-.88-1.15 2.43 2.43 0 0 1 0-.6v-.33l.59-2.61c.28-1.11.44-1.76.54-2.14h-1.37a.36.36 0 0 1-.26-.11.61.61 0 0 1-.24-.44 1.62 1.62 0 0 1 .07-.38 1.1 1.1 0 0 1 .13-.36.53.53 0 0 1 .48-.27h1.59l.27-1.16c0-.14.08-.31.13-.52a3.88 3.88 0 0 1 .14-.52 2.49 2.49 0 0 0 .1-.32 1 1 0 0 1 .24-.48 1.15 1.15 0 0 0 .14-.17.76.76 0 0 1 .48-.31 1.84 1.84 0 0 1 .41-.05 1 1 0 0 1 .76.36 1 1 0 0 1 .19.56 4.84 4.84 0 0 1-.17.93c-.11.49-.23 1-.37 1.45l-.06.23h1.35a.36.36 0 0 1 .26.11.65.65 0 0 1 .24.47 1.23 1.23 0 0 1-.34.89.35.35 0 0 1-.27.11H89.8l-.58 2.34c-.59 2.41-.69 2.94-.7 3 0 .3.07.37.07.37a1.4 1.4 0 0 0 1-.5 4.35 4.35 0 0 0 .88-1.4.5.5 0 0 1 .31-.34 1.78 1.78 0 0 1 .36-.06h.11c.63 0 .64.47.64.52a1.13 1.13 0 0 1-.07.34 3.37 3.37 0 0 1-.36.76 6.23 6.23 0 0 1-.65.9 3.82 3.82 0 0 1-1 .85 2.69 2.69 0 0 1-1.3.36Z"/><path class="cls-1" d="M89.85 26.43a.56.56 0 0 1 .45.2.63.63 0 0 1 .13.34 7 7 0 0 1-.17.85c-.11.48-.23 1-.36 1.43l-.18.67a3.67 3.67 0 0 0 .91 0h.92a.34.34 0 0 1 .12.2.85.85 0 0 1-.23.63H89.5l-.65 2.62c-.47 1.93-.7 3-.7 3.12 0 .5.16.76.48.76a1.71 1.71 0 0 0 1.23-.62 4.49 4.49 0 0 0 1-1.52q0-.1.09-.12a1 1 0 0 1 .28 0h.07c.18 0 .27 0 .27.14a1.16 1.16 0 0 1 0 .22 3.47 3.47 0 0 1-.33.69 6.43 6.43 0 0 1-.62.85 3.43 3.43 0 0 1-.92.76 2.26 2.26 0 0 1-1.1.31 2.09 2.09 0 0 1-1-.27 1.58 1.58 0 0 1-.71-.95 2.34 2.34 0 0 1 0-.48v-.33l.64-2.53c.42-1.71.64-2.56.65-2.57a3.8 3.8 0 0 0-.92 0h-.93q-.12-.12-.12-.18a1.13 1.13 0 0 1 0-.29.82.82 0 0 1 .09-.25.15.15 0 0 1 .16-.09H88.39l.34-1.45c0-.13.08-.31.13-.53a4.35 4.35 0 0 1 .12-.47 1.73 1.73 0 0 0 .11-.36.74.74 0 0 1 .15-.31 2 2 0 0 0 .18-.21.41.41 0 0 1 .25-.17 1.84 1.84 0 0 1 .33 0m0-.75a2.63 2.63 0 0 0-.49.05 1.16 1.16 0 0 0-.7.46l-.1.12a1.39 1.39 0 0 0-.35.66 1.36 1.36 0 0 1-.08.28 4.47 4.47 0 0 0-.16.57c0 .2-.08.37-.11.49l-.22.9H86.5a.9.9 0 0 0-.8.44 1.71 1.71 0 0 0-.18.47 2.11 2.11 0 0 0-.07.47 1 1 0 0 0 .34.71.75.75 0 0 0 .53.22h.89c-.1.4-.24.94-.42 1.68L86 35.75a.57.57 0 0 0 0 .18v.33a2.88 2.88 0 0 0 .06.67 2.27 2.27 0 0 0 1 1.36 2.9 2.9 0 0 0 1.4.37A2.94 2.94 0 0 0 90 38.3a4.11 4.11 0 0 0 1.13-.93 7.25 7.25 0 0 0 .69-.95 4.41 4.41 0 0 0 .39-.85 1.37 1.37 0 0 0 .09-.44.92.92 0 0 0-1-.89h-.14a2.22 2.22 0 0 0-.44.07.92.92 0 0 0-.57.61 4.09 4.09 0 0 1-.78 1.23 1.56 1.56 0 0 1-.42.32c0-.18.17-.84.67-2.88l.51-2.05h1.35a.75.75 0 0 0 .53-.22 1.59 1.59 0 0 0 .45-1.16 1 1 0 0 0-.34-.73.75.75 0 0 0-.53-.22h-.86c.11-.4.21-.81.3-1.22a5.42 5.42 0 0 0 .19-1 1.31 1.31 0 0 0-.27-.77 1.24 1.24 0 0 0-1-.52Z"/><path d="M95.87 38.33a3.27 3.27 0 0 1-2.46-1 3.39 3.39 0 0 1-.93-2.4 5.14 5.14 0 0 1 .58-2.39 6.32 6.32 0 0 1 1.58-1.95 4.84 4.84 0 0 1 3-1.19h.77l.54.14a4.29 4.29 0 0 1 .7.32 2.56 2.56 0 0 1 .77.64 3.79 3.79 0 0 1 .52 1 3.64 3.64 0 0 1 .25 1.4 5.71 5.71 0 0 1-5.36 5.42Zm1.9-7.53a2.19 2.19 0 0 0-1.72.92 5 5 0 0 0-.92 2 9.89 9.89 0 0 0-.33 1.92 1.25 1.25 0 0 0 .34 1 1.22 1.22 0 0 0 .82.31 2 2 0 0 0 1.27-.49 3.83 3.83 0 0 0 1-1.38 10.42 10.42 0 0 0 .39-1.29 6.25 6.25 0 0 0 .24-1.57 1.63 1.63 0 0 0-.24-1 1 1 0 0 0-.85-.42Z"/><path class="cls-1" d="M97.68 29.78h.73l.47.13a3.94 3.94 0 0 1 .63.29 2.18 2.18 0 0 1 .65.54 3.49 3.49 0 0 1 .47.89 3.38 3.38 0 0 1 .22 1.27 4.82 4.82 0 0 1-1.56 3.49A4.73 4.73 0 0 1 95.87 38a2.89 2.89 0 0 1-2.19-.89 3 3 0 0 1-.83-2.14 4.79 4.79 0 0 1 .54-2.22 6 6 0 0 1 1.49-1.83 4.43 4.43 0 0 1 2.8-1.1M96 37.29a2.37 2.37 0 0 0 1.51-.58 4.07 4.07 0 0 0 1.12-1.52 11.19 11.19 0 0 0 .37-1.34 7.12 7.12 0 0 0 .25-1.67 1.92 1.92 0 0 0-.32-1.18 1.41 1.41 0 0 0-1.16-.54 2.53 2.53 0 0 0-2 1.05 5.11 5.11 0 0 0-1 2.12 9.83 9.83 0 0 0-.34 2 1.6 1.6 0 0 0 .47 1.3 1.63 1.63 0 0 0 1.06.4M97.68 29a5.16 5.16 0 0 0-3.27 1.27 6.63 6.63 0 0 0-1.68 2.06 5.52 5.52 0 0 0-.63 2.57 3.73 3.73 0 0 0 1 2.65 3.58 3.58 0 0 0 2.73 1.13 5.51 5.51 0 0 0 4-1.78 5.6 5.6 0 0 0 1.77-4 4.22 4.22 0 0 0-.27-1.54 4.33 4.33 0 0 0-.57-1.08 3.09 3.09 0 0 0-.89-.74 4.75 4.75 0 0 0-.77-.35l-.52-.14H97.68ZM96 36.54a.86.86 0 0 1-.58-.22 1 1 0 0 1-.2-.73 8.41 8.41 0 0 1 .32-1.82 4.48 4.48 0 0 1 .8-1.77 1.82 1.82 0 0 1 1.43-.78.68.68 0 0 1 .58.26 1.33 1.33 0 0 1 .16.74 6.09 6.09 0 0 1-.23 1.48 11.12 11.12 0 0 1-.38 1.23 3.34 3.34 0 0 1-.9 1.2 1.61 1.61 0 0 1-1 .41Z"/><path d="M108 38.33a.87.87 0 0 1-.62-.22 1.48 1.48 0 0 1-.28-.3.76.76 0 0 1-.11-.38 18.81 18.81 0 0 1 .63-2.68l.65-2.64a3 3 0 0 0 0-.6c0-.69-.27-.69-.43-.69a2.74 2.74 0 0 0-2.39 1.64l-.1.17-.55 2.37a21.42 21.42 0 0 1-.72 2.63 1.16 1.16 0 0 1-1.11.69 1 1 0 0 1-.61-.18 1.06 1.06 0 0 1-.3-.35.62.62 0 0 1-.07-.45 24.74 24.74 0 0 1 .69-3c.58-2.29.68-2.77.69-2.85a2.41 2.41 0 0 0 .06-.46c0-.22-.05-.28-.05-.28s-.26.11-.37.31a4.58 4.58 0 0 0-.38 1c-.15.63-.23.77-.36.86s-.25.11-.51.11h-.26a.36.36 0 0 1-.26-.11.62.62 0 0 1-.22-.43l.06-.36a6.93 6.93 0 0 1 .23-.74 6.68 6.68 0 0 1 .39-.9 2.52 2.52 0 0 1 .67-.78 1.52 1.52 0 0 1 1-.4 4 4 0 0 1 .92.14 1.35 1.35 0 0 1 .71.55c.11.14.21.28.29.4a.1.1 0 0 0 0 .05 3.7 3.7 0 0 1 2.6-1.06 5.7 5.7 0 0 1 .62 0 2.59 2.59 0 0 1 1 .38 2.61 2.61 0 0 1 .3.24 1 1 0 0 1 .29.39.25.25 0 0 0 .07.12 3.69 3.69 0 0 1 2.7-1.19 2.77 2.77 0 0 1 1.81.58 2.14 2.14 0 0 1 .76 1.71 10.11 10.11 0 0 1-.71 3 11.12 11.12 0 0 0-.67 2.19v.06a.9.9 0 0 0 .63-.4 4 4 0 0 0 .63-1.35.76.76 0 0 1 .26-.45.94.94 0 0 1 .5-.1c.67 0 .74.37.74.52a1.16 1.16 0 0 1-.09.38 5.57 5.57 0 0 1-.42 1.09 3.73 3.73 0 0 1-.92 1.13 2.15 2.15 0 0 1-1.45.58 1.84 1.84 0 0 1-1.57-.63 2 2 0 0 1-.46-1.24 9.11 9.11 0 0 1 .67-2.3 9.34 9.34 0 0 0 .65-2.63c0-.69-.26-.69-.42-.69a2.71 2.71 0 0 0-2.39 1.64l-.1.17-.51 2.41a21 21 0 0 1-.71 2.63 1.18 1.18 0 0 1-1.1.7Z"/><path class="cls-1" d="M103.36 29.76a3.34 3.34 0 0 1 .78.12 1 1 0 0 1 .54.33l.29.4a.67.67 0 0 1 .15.34v.13l.2-.2a3.38 3.38 0 0 1 2.68-1.12 4.91 4.91 0 0 1 .57 0 2.52 2.52 0 0 1 .47.13 1.74 1.74 0 0 1 .34.18 2.38 2.38 0 0 1 .27.22.5.5 0 0 1 .18.23.63.63 0 0 0 .15.24.23.23 0 0 1 .02.24.13.13 0 0 0 0 .16c.06 0 .07.08 0 .11l.14-.16a3.4 3.4 0 0 1 2.69-1.36 2.41 2.41 0 0 1 1.58.49 1.79 1.79 0 0 1 .61 1.43 9.7 9.7 0 0 1-.69 2.86 12.32 12.32 0 0 0-.68 2.31.65.65 0 0 0 .09.35.34.34 0 0 0 .27.09 1.2 1.2 0 0 0 .94-.55 4.34 4.34 0 0 0 .71-1.48.44.44 0 0 1 .1-.23.6.6 0 0 1 .29 0c.24 0 .37 0 .37.14s0 .11-.08.28a5.87 5.87 0 0 1-.39 1 3.54 3.54 0 0 1-.84 1 1.77 1.77 0 0 1-1.2.49 1.47 1.47 0 0 1-1.23-.49 1.65 1.65 0 0 1-.38-1 11.72 11.72 0 0 1 .65-2.18 9.35 9.35 0 0 0 .67-2.75c0-.71-.26-1.06-.79-1.06h-.09a3.08 3.08 0 0 0-2.63 1.82l-.12.22-.6 2.43q-.6 2.37-.69 2.55a.82.82 0 0 1-.7.53.55.55 0 0 1-.38-.13 1.24 1.24 0 0 1-.2-.22.41.41 0 0 1-.05-.18c0-.13.2-1 .61-2.59l.66-2.64a4.25 4.25 0 0 0 0-.69c0-.71-.27-1.06-.8-1.06h-.09a3.08 3.08 0 0 0-2.62 1.82l-.13.22-.59 2.43q-.6 2.37-.69 2.55a.82.82 0 0 1-.72.49.63.63 0 0 1-.38-.11.67.67 0 0 1-.2-.22.26.26 0 0 1 0-.18q0-.24.69-3c.47-1.86.71-2.83.71-2.91a3.13 3.13 0 0 0 0-.49c0-.43-.15-.65-.45-.65a.78.78 0 0 0-.67.5 4.9 4.9 0 0 0-.42 1.11 2.1 2.1 0 0 1-.21.65.65.65 0 0 1-.29 0h-.26c-.07-.08-.11-.13-.11-.17s0-.17.06-.29a5.26 5.26 0 0 1 .22-.68 6 6 0 0 1 .36-.85 2.08 2.08 0 0 1 .58-.67 1.16 1.16 0 0 1 .75-.31m0-.75a1.91 1.91 0 0 0-1.23.48 3 3 0 0 0-.77.9 8 8 0 0 0-.4.94 7.52 7.52 0 0 0-.25.8c0 .13 0 .23-.06.31s0 .08 0 .12a1 1 0 0 0 .33.7.75.75 0 0 0 .53.22h.26a1.1 1.1 0 0 0 .77-.22h.06l-.28 1.09a28 28 0 0 0-.7 3.08 1 1 0 0 0 .11.59 1.44 1.44 0 0 0 .42.48 1.37 1.37 0 0 0 .83.26 1.54 1.54 0 0 0 1.45-.92 18 18 0 0 0 .74-2.69l.57-2.32.08-.13a2.36 2.36 0 0 1 2-1.45h.1a.93.93 0 0 1 0 .32 2.61 2.61 0 0 1 0 .54l-.64 2.61a16.49 16.49 0 0 0-.64 2.77 1.07 1.07 0 0 0 .16.57 1.54 1.54 0 0 0 .35.39 1.26 1.26 0 0 0 .87.32 1.56 1.56 0 0 0 1.46-.92 20.37 20.37 0 0 0 .74-2.69l.57-2.32.07-.13a2.36 2.36 0 0 1 2-1.45h.1a1.51 1.51 0 0 1 0 .32 8.59 8.59 0 0 1-.62 2.5 8.92 8.92 0 0 0-.7 2.43 2.34 2.34 0 0 0 .54 1.47 2.17 2.17 0 0 0 1.82.78 2.54 2.54 0 0 0 1.74-.68 4.34 4.34 0 0 0 1-1.24 6.41 6.41 0 0 0 .45-1.17 1.6 1.6 0 0 0 .1-.47c0-.09 0-.89-1.12-.89a1.23 1.23 0 0 0-.7.16.9.9 0 0 0-.28.31 10.08 10.08 0 0 0 .7-3 2.51 2.51 0 0 0-.89-2 3.11 3.11 0 0 0-2-.66 4 4 0 0 0-2.62 1 2.19 2.19 0 0 0-.21-.23l-.33-.26a2.89 2.89 0 0 0-.5-.26 2.32 2.32 0 0 0-.65-.18 4.64 4.64 0 0 0-.67 0 4 4 0 0 0-2.54.88l-.1-.13a1.69 1.69 0 0 0-.93-.6 4.37 4.37 0 0 0-1-.15Z"/><path d="M124 38.31a2.23 2.23 0 0 1-1.24-.33 2 2 0 0 1-.59-.56 3.35 3.35 0 0 1-2.17.89 2.85 2.85 0 0 1-2-.82 3.43 3.43 0 0 1-.87-2.57 5.73 5.73 0 0 1 1.46-3.72 4.42 4.42 0 0 1 3.41-1.8 2.28 2.28 0 0 1 1.61.68 1.21 1.21 0 0 1 .86-.34 1 1 0 0 1 .65.23.83.83 0 0 1 .32.66 21.32 21.32 0 0 1-.68 3c-.58 2.29-.67 2.82-.68 2.94a.89.89 0 0 0 0 .34h.1l.13-.09a3.83 3.83 0 0 0 .6-1.53c.1-.32.2-.58.46-.65a.61.61 0 0 1 .27 0c.74 0 .79.42.79.54a2.59 2.59 0 0 1-.1.58 5.87 5.87 0 0 1-.39 1 3.32 3.32 0 0 1-.65 1 2.3 2.3 0 0 1-.7.46 2.07 2.07 0 0 1-.59.09Zm-2.11-7.51a1.33 1.33 0 0 0-.94.46 3.54 3.54 0 0 0-.82 1.32 14.82 14.82 0 0 0-.72 2.9v.14a1.37 1.37 0 0 1 0 .31 1 1 0 0 0 .22.76.79.79 0 0 0 .53.22 1.66 1.66 0 0 0 1.09-.5 2.56 2.56 0 0 0 .7-.78c0-.05.09-.32.47-1.89s.45-1.87.46-2l-.07-.26a1.36 1.36 0 0 0-.33-.48.78.78 0 0 0-.57-.2Z"/><path class="cls-1" d="M122 29.78a2 2 0 0 1 1.63.88.91.91 0 0 1 .84-.54.68.68 0 0 1 .41.14.46.46 0 0 1 .18.37c0 .15-.22 1.12-.67 2.89s-.67 2.78-.69 3a1 1 0 0 0 .13.59.52.52 0 0 0 .38.17.73.73 0 0 0 .36-.17 4.1 4.1 0 0 0 .75-1.73c.07-.24.13-.37.18-.38s.08 0 .18 0h.07c.23 0 .34 0 .34.16a2.88 2.88 0 0 1-.09.49 5.87 5.87 0 0 1-.36 1 2.85 2.85 0 0 1-.58.9 1.58 1.58 0 0 1-.58.38 1.55 1.55 0 0 1-.43 0 1.84 1.84 0 0 1-1-.27 1.45 1.45 0 0 1-.55-.56l-.1-.27h-.06l-.07.08a3.2 3.2 0 0 1-2.17 1 2.5 2.5 0 0 1-1.76-.72 3.09 3.09 0 0 1-.76-2.3 5.35 5.35 0 0 1 1.38-3.48 4 4 0 0 1 3.04-1.63m-1.82 7.51a2 2 0 0 0 1.35-.6 3.22 3.22 0 0 0 .8-.92c0-.05.19-.7.49-1.94s.46-1.91.47-2a1.75 1.75 0 0 0-.09-.4 1.72 1.72 0 0 0-.42-.63 1.14 1.14 0 0 0-.83-.36 1.7 1.7 0 0 0-1.21.56 3.72 3.72 0 0 0-.91 1.47 14.1 14.1 0 0 0-.74 3v.2a1.09 1.09 0 0 1 0 .22 1.5 1.5 0 0 0 .33 1.12 1.11 1.11 0 0 0 .78.33M122 29a4.77 4.77 0 0 0-3.7 2 6.09 6.09 0 0 0-1.55 4 3.78 3.78 0 0 0 1 2.84 3.18 3.18 0 0 0 2.27.93 3.59 3.59 0 0 0 2.12-.74 3.38 3.38 0 0 0 .44.35 3 3 0 0 0 2.06.33h.1a2.34 2.34 0 0 0 .82-.54 3.81 3.81 0 0 0 .73-1.12 5.63 5.63 0 0 0 .41-1.12 2.43 2.43 0 0 0 .11-.66c0-.34-.23-.91-1.09-.91h-.07a1.28 1.28 0 0 0-.43.06.71.71 0 0 0-.33.22c.06-.25.12-.51.2-.81a19.4 19.4 0 0 0 .69-3.08 1.18 1.18 0 0 0-.46-.95 1.41 1.41 0 0 0-.88-.31 1.64 1.64 0 0 0-.85.23A2.54 2.54 0 0 0 122 29Zm-2.16 6.45a13.72 13.72 0 0 1 .7-2.77 3 3 0 0 1 .72-1.18 1 1 0 0 1 .69-.35.35.35 0 0 1 .29.13.9.9 0 0 1 .24.34v.15c0 .16-.14.62-.44 1.85-.34 1.41-.44 1.76-.46 1.85a3.22 3.22 0 0 1-.6.63 1.35 1.35 0 0 1-.84.41.47.47 0 0 1-.28-.12 1.11 1.11 0 0 1-.09-.52 2.16 2.16 0 0 0 0-.28v-.14Z"/><path d="M129.29 38.33a2.5 2.5 0 0 1-1.22-.32 1.92 1.92 0 0 1-.88-1.15 2.43 2.43 0 0 1 0-.6v-.33l.64-2.62c.28-1.11.44-1.76.54-2.14H127a.36.36 0 0 1-.26-.11.61.61 0 0 1-.24-.44 2.1 2.1 0 0 1 .06-.38 1.33 1.33 0 0 1 .14-.36.53.53 0 0 1 .48-.27h1.59l.27-1.16c0-.14.08-.31.13-.52a3.88 3.88 0 0 1 .14-.52c0-.08.06-.19.1-.32a1 1 0 0 1 .24-.48 1.27 1.27 0 0 0 .14-.17.78.78 0 0 1 .48-.31 1.84 1.84 0 0 1 .41-.05.93.93 0 0 1 .75.36 1 1 0 0 1 .2.56 4.84 4.84 0 0 1-.17.93c-.11.49-.24 1-.37 1.45l-.06.23h1.35a.36.36 0 0 1 .26.11.69.69 0 0 1 .24.47 1.2 1.2 0 0 1-.35.89.33.33 0 0 1-.26.11h-1.65L130 33.5c-.58 2.41-.68 2.94-.69 3 0 .3.07.37.07.37a1.36 1.36 0 0 0 1-.5 4 4 0 0 0 .88-1.4.54.54 0 0 1 .32-.34 1.52 1.52 0 0 1 .36-.06h.06c.62 0 .64.47.64.52a1.13 1.13 0 0 1-.07.34 3.88 3.88 0 0 1-.36.76 7.11 7.11 0 0 1-.65.9 3.82 3.82 0 0 1-1 .85 2.69 2.69 0 0 1-1.27.39Z"/><path class="cls-1" d="M130.63 26.43a.56.56 0 0 1 .45.2.61.61 0 0 1 .12.34 6.09 6.09 0 0 1-.16.85c-.11.48-.23 1-.36 1.43l-.18.67a3.61 3.61 0 0 0 .9 0h.93a.34.34 0 0 1 .12.2.89.89 0 0 1-.23.63h-1.94l-.65 2.62c-.47 1.93-.71 3-.71 3.12 0 .5.17.76.49.76a1.73 1.73 0 0 0 1.23-.62 4.49 4.49 0 0 0 1-1.52q0-.1.09-.12a.94.94 0 0 1 .27 0c.18 0 .27 0 .27.14a.81.81 0 0 1-.06.22 3.35 3.35 0 0 1-.32.69 6.43 6.43 0 0 1-.62.85 3.43 3.43 0 0 1-.92.76 2.26 2.26 0 0 1-1.1.31 2.12 2.12 0 0 1-1-.27 1.6 1.6 0 0 1-.7-.95 1.79 1.79 0 0 1 0-.48v-.33l.64-2.53c.42-1.71.64-2.56.65-2.57a3.85 3.85 0 0 0-.93 0H127c-.08-.08-.13-.14-.13-.18a1.32 1.32 0 0 1 .06-.29c0-.15.06-.23.09-.25a.15.15 0 0 1 .16-.09H129l.35-1.45c0-.13.08-.31.12-.53s.1-.37.13-.47a2.66 2.66 0 0 0 .11-.36.64.64 0 0 1 .15-.31 2 2 0 0 0 .18-.21.41.41 0 0 1 .25-.17 1.84 1.84 0 0 1 .33 0m0-.75a2.63 2.63 0 0 0-.49.05 1.14 1.14 0 0 0-.7.46.65.65 0 0 1-.11.12 1.38 1.38 0 0 0-.32.6 2.55 2.55 0 0 1-.08.28 4.47 4.47 0 0 0-.16.57 4.4 4.4 0 0 1-.12.49l-.21.9h-1.29a.9.9 0 0 0-.8.44 1.71 1.71 0 0 0-.18.47 2.27 2.27 0 0 0-.08.47 1 1 0 0 0 .35.71.75.75 0 0 0 .53.22h.89c-.11.4-.24.94-.42 1.68l-.64 2.53a1.1 1.1 0 0 0 0 .18v.33a2.88 2.88 0 0 0 .06.67 2.28 2.28 0 0 0 1.06 1.36 2.9 2.9 0 0 0 1.4.37 2.94 2.94 0 0 0 1.47-.41 4.11 4.11 0 0 0 1.13-.93 6.31 6.31 0 0 0 .68-.95 4 4 0 0 0 .4-.85 1.37 1.37 0 0 0 .09-.44.92.92 0 0 0-1-.89h-.14a2.22 2.22 0 0 0-.44.07.9.9 0 0 0-.57.61 4.09 4.09 0 0 1-.78 1.23 1.45 1.45 0 0 1-.43.32c0-.18.18-.84.68-2.88l.51-2.05h1.35a.75.75 0 0 0 .53-.22 1.59 1.59 0 0 0 .45-1.16 1 1 0 0 0-.34-.73.75.75 0 0 0-.53-.22h-.86c.11-.4.21-.81.3-1.22a4.82 4.82 0 0 0 .18-1 1.3 1.3 0 0 0-.26-.77 1.24 1.24 0 0 0-1-.52Z"/><path d="M136.73 38.33a3 3 0 0 1-2.5-1.1 3.9 3.9 0 0 1-.88-2.51 5.32 5.32 0 0 1 .37-2 4.7 4.7 0 0 1 1-1.53 5.71 5.71 0 0 1 1.3-1 6.7 6.7 0 0 1 1.34-.6 4 4 0 0 1 1.15-.18h.11a2.92 2.92 0 0 1 1.66.46 1.72 1.72 0 0 1 .77 1.49c0 .88-.4 2-2.29 2.5a10.79 10.79 0 0 1-2.52.27h-.36c0 .1 0 .22-.07.36a6.9 6.9 0 0 0-.12 1 1.76 1.76 0 0 0 .3 1.09 1.07 1.07 0 0 0 .86.36 4.12 4.12 0 0 0 1.53-.32 3.84 3.84 0 0 0 1.52-1.09.74.74 0 0 1 .5-.31.71.71 0 0 1 .5.28.88.88 0 0 1 .29.44.74.74 0 0 1-.26.62 5.61 5.61 0 0 1-.58.53 9 9 0 0 1-.88.59 5.43 5.43 0 0 1-1.23.49 5.59 5.59 0 0 1-1.51.16Zm1.8-7.53a2 2 0 0 0-.93.22 2.13 2.13 0 0 0-.7.52 4.22 4.22 0 0 0-.48.68 3.65 3.65 0 0 0-.22.46 6.15 6.15 0 0 0 2.56-.39 1 1 0 0 0 .63-.93c-.03-.26-.16-.56-.86-.56Z"/><path class="cls-1" d="M138.47 29.76h.16a2.46 2.46 0 0 1 1.41.4 1.29 1.29 0 0 1 .59 1.17c0 1.09-.67 1.8-2 2.14a10.17 10.17 0 0 1-2.43.25 2.24 2.24 0 0 0-.69 0s0 .23-.11.63a7.68 7.68 0 0 0-.12 1 2.08 2.08 0 0 0 .38 1.34 1.38 1.38 0 0 0 1.14.51h.07a4.47 4.47 0 0 0 1.61-.35 4.41 4.41 0 0 0 1.67-1.19c.1-.12.18-.18.21-.18s.13 0 .24.16a.58.58 0 0 1 .18.25c0 .06 0 .16-.16.29a4.2 4.2 0 0 1-.55.49 6 6 0 0 1-.83.56 4.66 4.66 0 0 1-1.14.46 5.28 5.28 0 0 1-1.38.18 2.67 2.67 0 0 1-2.2-1 3.58 3.58 0 0 1-.8-2.28 4.92 4.92 0 0 1 .34-1.88 4.47 4.47 0 0 1 .89-1.42 5.78 5.78 0 0 1 1.21-.94 6.5 6.5 0 0 1 1.27-.56 3.56 3.56 0 0 1 1-.16m-2.4 3.29a6.6 6.6 0 0 0 2.86-.43 1.41 1.41 0 0 0 .84-1.25c-.08-.63-.49-.94-1.24-.94a2.43 2.43 0 0 0-1.1.25 2.49 2.49 0 0 0-.81.62 5.07 5.07 0 0 0-.53.74 3.12 3.12 0 0 0-.29.65l-.09.34h.36m2.4-4a4.38 4.38 0 0 0-1.26.19 7.47 7.47 0 0 0-1.42.63 6.47 6.47 0 0 0-1.38 1.07 5 5 0 0 0-1 1.65 5.7 5.7 0 0 0-.4 2.17 4.34 4.34 0 0 0 1 2.75 3.42 3.42 0 0 0 2.79 1.24 6 6 0 0 0 1.58-.21 5.51 5.51 0 0 0 1.32-.53 8.65 8.65 0 0 0 .92-.62 5.56 5.56 0 0 0 .63-.57 1.07 1.07 0 0 0 .34-.94 1.24 1.24 0 0 0-.38-.64 1.1 1.1 0 0 0-.77-.38 1 1 0 0 0-.77.43 3.8 3.8 0 0 1-1.38 1 3.86 3.86 0 0 1-1.34.29h-.06c-.4 0-.52-.16-.56-.22a1.41 1.41 0 0 1-.22-.88 8.13 8.13 0 0 1 .11-.91v-.06a10.55 10.55 0 0 0 2.62-.28c2.12-.53 2.56-1.85 2.56-2.86a2.07 2.07 0 0 0-.93-1.8 3.19 3.19 0 0 0-1.82-.52h-.16Zm-1.65 3.27a4.92 4.92 0 0 1 .37-.5 1.79 1.79 0 0 1 .58-.43 1.6 1.6 0 0 1 .76-.17c.41 0 .46.09.48.22s-.09.37-.43.56a4.55 4.55 0 0 1-1.76.32Z"/><path d="M148.56 38.31a2.25 2.25 0 0 1-1.24-.33 2 2 0 0 1-.59-.56 3.33 3.33 0 0 1-2.17.89 2.81 2.81 0 0 1-2-.82 3.43 3.43 0 0 1-.88-2.57 5.14 5.14 0 0 1 .39-1.92 6.61 6.61 0 0 1 .92-1.64 5.37 5.37 0 0 1 1.84-1.54 4 4 0 0 1 1.7-.44 2.21 2.21 0 0 1 1.41.46l.32-1.31.47-1.89h-.81a.4.4 0 0 1-.26-.1.6.6 0 0 1-.22-.42s0-.15 0-.38c.15-.57.41-.68.61-.68l1.28-.09c.76-.05 1.18-.08 1.27-.1.47 0 .65.26.65.51 0 .08 0 .17-1.33 5.56s-1.35 5.43-1.37 5.48a.24.24 0 0 0 0 .1c0 .41.09.43.13.43l.15-.09a4.23 4.23 0 0 0 .6-1.53c.09-.32.19-.58.45-.65a.61.61 0 0 1 .27 0h.15c.62 0 .64.47.64.52a1.77 1.77 0 0 1-.06.39 6.94 6.94 0 0 1-.58 1.55 3 3 0 0 1-.6.83 2.16 2.16 0 0 1-.6.35 2.07 2.07 0 0 1-.54-.01Zm-2.1-7.51a1.37 1.37 0 0 0-1 .46 3.4 3.4 0 0 0-.81 1.32 14.16 14.16 0 0 0-.73 2.9v.14a1.3 1.3 0 0 1 0 .31 1 1 0 0 0 .22.76.79.79 0 0 0 .53.22c.52 0 1.09-.39 1.7-1.16l.1-.13.93-3.75c-.3-1.07-.78-1.07-.94-1.07Z"/><path class="cls-1" d="M150.7 25.2c.14 0 .21.05.21.14s-.44 1.91-1.32 5.47l-1.35 5.45a.57.57 0 0 0 0 .27c0 .5.17.76.5.76a.8.8 0 0 0 .37-.17 4.13 4.13 0 0 0 .74-1.73c.07-.24.13-.37.18-.38s.08 0 .18 0h.15c.18 0 .27 0 .27.14a1.13 1.13 0 0 1-.06.29 6.27 6.27 0 0 1-.54 1.47 2.68 2.68 0 0 1-.51.72 1.83 1.83 0 0 1-.5.29 1.68 1.68 0 0 1-.44 0 1.86 1.86 0 0 1-1-.27 1.34 1.34 0 0 1-.54-.56l-.11-.27h-.05l-.08.08a3.18 3.18 0 0 1-2.17 1 2.46 2.46 0 0 1-1.75-.72 3.05 3.05 0 0 1-.76-2.3 4.83 4.83 0 0 1 .36-1.78 6.2 6.2 0 0 1 .87-1.55 4.93 4.93 0 0 1 1.7-1.43 3.63 3.63 0 0 1 1.54-.4 1.71 1.71 0 0 1 1.52.76l.08.08s.17-.71.49-2 .48-1.94.5-2 0-.25-.12-.29a2.7 2.7 0 0 0-.71-.09h-.38c-.07-.07-.11-.12-.11-.15v-.34c0-.21.14-.34.23-.34l1.31-.09c.85-.06 1.29-.1 1.32-.11m-6 12.09a2.78 2.78 0 0 0 2-1.31l.14-.19 1-3.93c-.28-1-.73-1.43-1.36-1.43a1.72 1.72 0 0 0-1.21.56 3.72 3.72 0 0 0-.91 1.47 14.75 14.75 0 0 0-.74 3v.2a.65.65 0 0 1 0 .22 1.5 1.5 0 0 0 .33 1.12 1.15 1.15 0 0 0 .78.33m6-12.84h-.15l-1.23.1-1.28.09c-.18 0-.7.09-.92.9v.53a1 1 0 0 0 .33.68.75.75 0 0 0 .53.22h.34c-.07.3-.19.76-.36 1.46l-.2.81a2.78 2.78 0 0 0-1.17-.24 4.44 4.44 0 0 0-1.86.47 5.75 5.75 0 0 0-2 1.63 7.38 7.38 0 0 0-1 1.75 5.64 5.64 0 0 0-.41 2.06 3.77 3.77 0 0 0 1 2.84 3.19 3.19 0 0 0 2.27.93 3.59 3.59 0 0 0 2.12-.74 3.38 3.38 0 0 0 .44.35 3 3 0 0 0 2.06.33h.1a2.94 2.94 0 0 0 .7-.41 3.09 3.09 0 0 0 .69-.94 7.78 7.78 0 0 0 .61-1.64 1.91 1.91 0 0 0 .08-.48.92.92 0 0 0-1-.89h-.15a1.31 1.31 0 0 0-.43.06.81.81 0 0 0-.31.19c.2-.8.48-1.92.87-3.5 1.34-5.43 1.34-5.51 1.34-5.65a.9.9 0 0 0-1-.89Zm-6.35 11a13.72 13.72 0 0 1 .7-2.77 3.11 3.11 0 0 1 .72-1.18 1 1 0 0 1 .69-.35c.27 0 .46.35.58.7l-.89 3.58-.06.08a2.17 2.17 0 0 1-1.39 1 .45.45 0 0 1-.27-.12 1 1 0 0 1-.09-.52 2.35 2.35 0 0 0 0-.28v-.14Z"/><path d="M72.74 61.57H68.27a.36.36 0 0 1-.26-.11.62.62 0 0 1-.22-.43 3.58 3.58 0 0 1 0-.38 1.3 1.3 0 0 1 .17-.44.39.39 0 0 1 .08-.1.72.72 0 0 1 .3-.13h.36a2.75 2.75 0 0 0 .77-.11l-.17-2.16h-3.71l-.51.87a7.35 7.35 0 0 0-.69 1.3 1.59 1.59 0 0 0 .48.1.58.58 0 0 1 .66.58s0 .11 0 .29a1 1 0 0 1-.18.49.62.62 0 0 1-.53.23H61a.36.36 0 0 1-.26-.11.71.71 0 0 1-.24-.47 1.18 1.18 0 0 1 .39-.93.37.37 0 0 1 .22-.08h.26a1.8 1.8 0 0 0 1.53-.74c.11-.14.74-1.18 3.26-5.5 3.18-5.42 3.23-5.48 3.25-5.52a.82.82 0 0 1 .73-.36h.46a.38.38 0 0 1 .31.16.7.7 0 0 1 .17.39l.51 5.82c.34 4 .47 5.3.51 5.7a4.87 4.87 0 0 0 .83 0c.72 0 .83.35.83.56a1.61 1.61 0 0 1-.07.34 1.21 1.21 0 0 1-.14.45.68.68 0 0 1-.53.24h-.29Zm-5-5.44h1.46c0-.36-.09-1.07-.2-2.43 0-.68-.1-1.18-.13-1.55l-2.35 4Z"/><path class="cls-1" d="m70.61 48.23.11.18.5 5.85c.34 3.9.52 5.86.55 5.9s.45.2 1.17.2q.45 0 .45.18a1.2 1.2 0 0 1 0 .25 2 2 0 0 1-.09.33s-.11.06-.25.07h-4.78a.34.34 0 0 1-.11-.16s0-.15 0-.33a1.47 1.47 0 0 1 .11-.29h.43c.65 0 1-.14 1.16-.31l-.22-2.71h-4.3l-.62 1a6.12 6.12 0 0 0-.72 1.46c0 .29.28.46.83.51.22 0 .33.07.33.2a2 2 0 0 1 0 .23 1 1 0 0 1-.11.33c0 .05-.11.07-.23.07H61a.34.34 0 0 1-.12-.2.84.84 0 0 1 .23-.63h.26a2.19 2.19 0 0 0 1.84-.91c.07-.07 1.17-1.91 3.28-5.52s3.18-5.43 3.22-5.48a.45.45 0 0 1 .43-.22h.46m-2.87 8.27h1.86c0-.14-.07-1.08-.21-2.83S69.15 51 69.12 51l-.49.78-1.14 1.93-1.63 2.76h1.87m2.88-9h-.46a1.23 1.23 0 0 0-1.08.59c-.13.21-.65 1.09-3.22 5.48s-3.11 5.29-3.22 5.46a1.42 1.42 0 0 1-1.26.58h-.22a.77.77 0 0 0-.44.14 1.56 1.56 0 0 0-.54 1.19V61a1 1 0 0 0 .34.73.77.77 0 0 0 .53.22h3.79a1 1 0 0 0 .83-.37 1.51 1.51 0 0 0 .24-.62 2.88 2.88 0 0 0 .06-.39 1 1 0 0 0-1-1c.09-.18.24-.45.48-.84l.4-.68H69l.12 1.48a3.33 3.33 0 0 1-.41 0h-.32a.74.74 0 0 0-.45.15l-.07.05a.81.81 0 0 0-.18.19 1.79 1.79 0 0 0-.2.48.5.5 0 0 0 0 .12 3.12 3.12 0 0 0 0 .43 1 1 0 0 0 .33.69.75.75 0 0 0 .53.22H73.05a1 1 0 0 0 .81-.4 1.75 1.75 0 0 0 .21-.6 1.58 1.58 0 0 0 .06-.4c0-.16 0-.93-1.2-.93h-.49c-.06-.62-.19-2.07-.48-5.4l-.51-5.83a1 1 0 0 0-.23-.54.75.75 0 0 0-.62-.34Zm-3.44 8.27 1-1.63.46-.78v.38l.16 2h-1.62Z"/><path d="M78.05 61.77a3.42 3.42 0 0 1-1.59-.37 2.43 2.43 0 0 1-1.14-2.25 8.13 8.13 0 0 1 .68-2.83 8 8 0 0 0 .61-2v-.1a.93.93 0 0 0-.47.26 2.34 2.34 0 0 0-.47.64 5.51 5.51 0 0 0-.29.7c-.11.39-.16.48-.24.56s-.28.14-.55.14h-.25a.38.38 0 0 1-.27-.1.67.67 0 0 1-.22-.43 2.12 2.12 0 0 1 .19-.7 9.61 9.61 0 0 1 .48-1 3.12 3.12 0 0 1 .9-1 2.17 2.17 0 0 1 1.28-.47 2 2 0 0 1 1.53.57 1.87 1.87 0 0 1 .52 1.32 8.62 8.62 0 0 1-.64 2.16 8.14 8.14 0 0 0-.59 2.42c0 .56.1.77.17.85a.56.56 0 0 0 .48.19 1.21 1.21 0 0 0 .73-.24 2.37 2.37 0 0 0 .58-.54l.19-.28.64-2.64c.36-1.46.58-2.31.65-2.55a1.67 1.67 0 0 1 .34-.67 1.36 1.36 0 0 1 .93-.39.94.94 0 0 1 1 .9l-1.43 5.84a.93.93 0 0 0 0 .2 1 1 0 0 0 0 .36s0 0 .12 0a1 1 0 0 0 .26-.35 10 10 0 0 0 .52-1.53c0-.15.19-.42.73-.42s.72.41.72.54v.29a3.78 3.78 0 0 1-.18.66c-.1.29-.21.56-.32.81a3.22 3.22 0 0 1-.52.78 1.83 1.83 0 0 1-.81.56 2.15 2.15 0 0 1-.55.06A2.06 2.06 0 0 1 80 61l-.23.17-.39.27a1.8 1.8 0 0 1-.67.28 6.17 6.17 0 0 1-.64.09Z"/><path class="cls-1" d="M76.69 53.19a1.63 1.63 0 0 1 1.25.45 1.57 1.57 0 0 1 .41 1.07 10.28 10.28 0 0 1-.61 2 8.39 8.39 0 0 0-.62 2.55 1.76 1.76 0 0 0 .26 1.09 1 1 0 0 0 .76.32 1.57 1.57 0 0 0 .91-.3 3.45 3.45 0 0 0 .67-.62l.19-.31s.26-1 .69-2.75c.36-1.45.58-2.29.65-2.53a1.53 1.53 0 0 1 .26-.53 1 1 0 0 1 .65-.27.55.55 0 0 1 .45.18.56.56 0 0 1 .15.35l-1.38 5.75a1.85 1.85 0 0 0 0 .29 1 1 0 0 0 .13.6.54.54 0 0 0 .38.16.84.84 0 0 0 .63-.56 11.93 11.93 0 0 0 .55-1.59q0-.15.36-.15c.23 0 .34.06.34.17v.25a4 4 0 0 1-.17.58 7.92 7.92 0 0 1-.31.78 2.23 2.23 0 0 1-.45.68 1.59 1.59 0 0 1-.65.46 2.31 2.31 0 0 1-.43 0 1.65 1.65 0 0 1-1.65-1 1.47 1.47 0 0 0-.2.18 2 2 0 0 1-.33.27l-.39.27a1.46 1.46 0 0 1-.53.22 5.58 5.58 0 0 1-.61.09 3 3 0 0 1-1.42-.33 2.05 2.05 0 0 1-.94-1.91 7.89 7.89 0 0 1 .64-2.7 8.65 8.65 0 0 0 .67-2.07v-.25a.19.19 0 0 0-.07-.13.27.27 0 0 0-.2-.07h-.07a1 1 0 0 0-.76.34 3 3 0 0 0-.55.75 4.27 4.27 0 0 0-.3.76 2.12 2.12 0 0 1-.15.39s-.12 0-.29 0h-.25a.34.34 0 0 1-.11-.16 1.81 1.81 0 0 1 .16-.56 8.67 8.67 0 0 1 .45-.95 2.86 2.86 0 0 1 .8-.9 1.86 1.86 0 0 1 1.07-.4m0-.75a2.61 2.61 0 0 0-1.49.55 3.61 3.61 0 0 0-1 1.14 9.45 9.45 0 0 0-.5 1 2.39 2.39 0 0 0-.21.84 1 1 0 0 0 .33.69.75.75 0 0 0 .53.22h.25a1.06 1.06 0 0 0 .82-.26.53.53 0 0 0 .11-.14 8.28 8.28 0 0 0-.56 2.64 2.77 2.77 0 0 0 1.31 2.56 3.77 3.77 0 0 0 1.8.43h.08l.67-.1a2.09 2.09 0 0 0 .81-.34l.36-.24a2.44 2.44 0 0 0 1.79.66 2.5 2.5 0 0 0 .61-.06h.07a2.22 2.22 0 0 0 1-.66 3.27 3.27 0 0 0 .49-.83 8.17 8.17 0 0 0 .33-.84 3.63 3.63 0 0 0 .2-.74v-.19a.71.71 0 0 0 0-.14 1 1 0 0 0-1.09-.92 1.18 1.18 0 0 0-.85.29l.93-3.87a1.11 1.11 0 0 0 0-.17 1.33 1.33 0 0 0-.31-.82 1.28 1.28 0 0 0-1-.46 1.74 1.74 0 0 0-1.15.46l-.06.06a2.12 2.12 0 0 0-.41.81c-.08.26-.3 1.1-.67 2.57-.44 1.84-.59 2.43-.64 2.61l-.13.2a2.32 2.32 0 0 1-.49.44.81.81 0 0 1-.47.16c-.11 0-.21 0-.23-.05a1.28 1.28 0 0 1-.09-.61 7.58 7.58 0 0 1 .57-2.3 7.92 7.92 0 0 0 .66-2.28 2.23 2.23 0 0 0-.61-1.57 2.33 2.33 0 0 0-1.8-.7Z"/><path d="M86.91 65.28c-1.91 0-2.91-.54-2.91-1.61a1.56 1.56 0 0 1 .42-1.08 1.44 1.44 0 0 1 1.11-.49 1.26 1.26 0 0 1 .72.23 1 1 0 0 1 .42.85 2.06 2.06 0 0 1 0 .45 1.72 1.72 0 0 1-.07.21h.37a2 2 0 0 0 .91-.17 2.21 2.21 0 0 0 .68-.52 1.94 1.94 0 0 0 .43-.72c.07-.22.16-.58.28-1.09v-.12a2.79 2.79 0 0 1-1.28.32 2.63 2.63 0 0 1-2.11-1A3.53 3.53 0 0 1 85 58.3a5.59 5.59 0 0 1 1.49-3.75 4.49 4.49 0 0 1 3.37-1.73 2.25 2.25 0 0 1 1.58.69l.07-.06a.89.89 0 0 1 .37-.2l.35-.07a1 1 0 0 1 1 .84 34.44 34.44 0 0 1-1 4.51 39.91 39.91 0 0 1-1.13 4.3 3.19 3.19 0 0 1-1.52 1.74 5.25 5.25 0 0 1-2.63.71Zm2.79-11a1.69 1.69 0 0 0-1.22.81 5.71 5.71 0 0 0-.84 2 9.75 9.75 0 0 0-.35 2c0 .93.36 1.06.75 1.06A2.32 2.32 0 0 0 89.73 59l.1-.12.91-3.62v-.09c0-.12-.06-.19-.08-.23l-.12-.28c-.13-.14-.23-.22-.33-.33a.23.23 0 0 0-.13-.06Z"/><path class="cls-1" d="M89.86 53.19a2.06 2.06 0 0 1 1.58.87v-.07l.09-.11a1.47 1.47 0 0 1 .17-.15.57.57 0 0 1 .23-.12 2.11 2.11 0 0 1 .29-.06.57.57 0 0 1 .42.17.54.54 0 0 1 .18.34c0 .18-.34 1.64-1 4.38s-1 4.14-1.09 4.2a3 3 0 0 1-1.39 1.61 4.84 4.84 0 0 1-2.45.65q-2.55 0-2.55-1.23a1.2 1.2 0 0 1 .33-.83 1.07 1.07 0 0 1 .83-.36.88.88 0 0 1 .51.16.69.69 0 0 1 .25.56 1.79 1.79 0 0 1 0 .34.58.58 0 0 1-.13.26 1.19 1.19 0 0 0-.13.2.33.33 0 0 1-.12.14 5.59 5.59 0 0 0 1.08 0A2.35 2.35 0 0 0 88 64a2.55 2.55 0 0 0 .78-.6 2.44 2.44 0 0 0 .51-.85c.07-.23.16-.6.29-1.12a7.8 7.8 0 0 0 .23-1 4 4 0 0 1-.8.51 2.35 2.35 0 0 1-1.1.27 2.28 2.28 0 0 1-1.83-.81 3.18 3.18 0 0 1-.7-2.08 5.19 5.19 0 0 1 1.39-3.5 4.13 4.13 0 0 1 3.09-1.61M88 60.5a2.66 2.66 0 0 0 2-1.26l.14-.18 1-3.8-.07-.2c0-.14-.07-.23-.09-.28a1.7 1.7 0 0 1-.11-.25.56.56 0 0 0-.18-.25l-.24-.2a.52.52 0 0 0-.32-.16 2.76 2.76 0 0 0-.4-.06 2 2 0 0 0-1.54 1 6 6 0 0 0-.9 2.15 10.22 10.22 0 0 0-.37 2.1c0 1 .38 1.43 1.13 1.43m1.82-8.06a4.87 4.87 0 0 0-3.65 1.87 5.94 5.94 0 0 0-1.58 4 3.91 3.91 0 0 0 .88 2.56 3.2 3.2 0 0 0 3.19 1 4.89 4.89 0 0 1-.13.48 1.55 1.55 0 0 1-.35.58 1.72 1.72 0 0 1-.54.42 1.43 1.43 0 0 1-.66.14 2.17 2.17 0 0 0 0-.26 1.41 1.41 0 0 0-.58-1.27 1.63 1.63 0 0 0-.93-.29 1.82 1.82 0 0 0-1.39.61 2 2 0 0 0-.52 1.33c0 .9.58 2 3.3 2a5.63 5.63 0 0 0 2.83-.75 3.72 3.72 0 0 0 1.72-2c.09-.27.31-1.08 1.11-4.26a35.18 35.18 0 0 0 1.05-4.56V54a1.3 1.3 0 0 0-.4-.8 1.32 1.32 0 0 0-1-.39h-.08a1.66 1.66 0 0 0-.41.08 1.15 1.15 0 0 0-.32.14 2.51 2.51 0 0 0-1.6-.59ZM88 59.75c-.19 0-.38 0-.38-.68a9 9 0 0 1 .38-1.91 5.28 5.28 0 0 1 .78-1.88 1.49 1.49 0 0 1 .91-.67h.26l.23.19a1.73 1.73 0 0 0 .12.28.79.79 0 0 0 0 .13l-.86 3.42v.06c-.51.66-1 1-1.4 1Z"/><path d="M99.78 61.77a.92.92 0 0 1-.62-.22 1.28 1.28 0 0 1-.28-.31.74.74 0 0 1-.1-.37 18.39 18.39 0 0 1 .62-2.69l.65-2.63a3 3 0 0 0 0-.6c0-.7-.27-.7-.42-.7a2.73 2.73 0 0 0-2.4 1.65l-.09.17-.59 2.37a20.47 20.47 0 0 1-.72 2.63 1.17 1.17 0 0 1-1.11.7 1 1 0 0 1-.61-.19 1 1 0 0 1-.3-.35.64.64 0 0 1-.07-.44 24.23 24.23 0 0 1 .69-3c.58-2.29.68-2.77.7-2.85a3.17 3.17 0 0 0 0-.46v-.27c-.15 0-.26.1-.37.31a4.49 4.49 0 0 0-.38 1c-.15.63-.23.77-.36.86s-.25.11-.51.11h-.21a.37.37 0 0 1-.26-.1.67.67 0 0 1-.22-.43l.06-.37a7.74 7.74 0 0 1 .23-.74 7.3 7.3 0 0 1 .39-.9 2.64 2.64 0 0 1 .67-.78 1.56 1.56 0 0 1 1-.39 3.78 3.78 0 0 1 .93.14 1.29 1.29 0 0 1 .73.46c.12.15.33.44.34.46a3.7 3.7 0 0 1 2.61-1.06 3.91 3.91 0 0 1 .61 0 2.42 2.42 0 0 1 .56.15 1.81 1.81 0 0 1 .42.22l.3.24a1 1 0 0 1 .29.4.46.46 0 0 0 .04.21 3.68 3.68 0 0 1 2.7-1.18 2.76 2.76 0 0 1 1.81.57 2.16 2.16 0 0 1 .76 1.71 9.91 9.91 0 0 1-.71 3 10.87 10.87 0 0 0-.67 2.19v.05a.9.9 0 0 0 .63-.4 4 4 0 0 0 .64-1.35.72.72 0 0 1 .26-.44.8.8 0 0 1 .49-.1c.67 0 .74.36.74.52a1.13 1.13 0 0 1-.09.37 5.92 5.92 0 0 1-.42 1.1 3.85 3.85 0 0 1-.92 1.13 2.19 2.19 0 0 1-1.45.58 1.86 1.86 0 0 1-1.57-.64 2 2 0 0 1-.46-1.24 9.36 9.36 0 0 1 .67-2.3 9.34 9.34 0 0 0 .65-2.63c0-.69-.26-.69-.42-.69a2.71 2.71 0 0 0-2.39 1.65l-.1.17-.59 2.37a21 21 0 0 1-.71 2.63 1.19 1.19 0 0 1-1.07.7Z"/><path class="cls-1" d="M95.16 53.19a3.35 3.35 0 0 1 .78.13 1 1 0 0 1 .55.32c.1.15.2.28.29.4a.78.78 0 0 1 .14.35v.12l.2-.2a3.42 3.42 0 0 1 2.56-1.16 3.28 3.28 0 0 1 .56 0 1.8 1.8 0 0 1 .47.12 1.72 1.72 0 0 1 .34.19 2.47 2.47 0 0 1 .27.21.57.57 0 0 1 .18.24.9.9 0 0 0 .15.23.24.24 0 0 1 .07.22.13.13 0 0 0 0 .16c.06 0 .07.08 0 .11l.14-.16a3.41 3.41 0 0 1 2.69-1.36 2.41 2.41 0 0 1 1.58.49 1.78 1.78 0 0 1 .61 1.43 9.86 9.86 0 0 1-.68 2.86 11.7 11.7 0 0 0-.69 2.32.6.6 0 0 0 .09.34.34.34 0 0 0 .27.09 1.22 1.22 0 0 0 .94-.54 4.22 4.22 0 0 0 .71-1.49.44.44 0 0 1 .1-.23.6.6 0 0 1 .29 0c.25 0 .37 0 .37.15l-.08.27a5.87 5.87 0 0 1-.39 1 3.29 3.29 0 0 1-.84 1 1.77 1.77 0 0 1-1.2.49 1.47 1.47 0 0 1-1.23-.49 1.63 1.63 0 0 1-.38-1 11.31 11.31 0 0 1 .66-2.17 9.74 9.74 0 0 0 .66-2.75c0-.71-.26-1.07-.79-1.07h-.09a3.09 3.09 0 0 0-2.46 1.9l-.12.21-.6 2.43q-.6 2.37-.69 2.55a.8.8 0 0 1-.78.49.55.55 0 0 1-.38-.13 1.24 1.24 0 0 1-.2-.21.41.41 0 0 1 0-.18c0-.14.21-1 .62-2.59l.65-2.64a4.44 4.44 0 0 0 0-.69c0-.71-.26-1.07-.8-1.07h-.09A3.07 3.07 0 0 0 97 55.71l-.13.21-.59 2.43q-.6 2.37-.69 2.55a.81.81 0 0 1-.78.49.63.63 0 0 1-.38-.11.58.58 0 0 1-.2-.22.26.26 0 0 1 0-.18c0-.15.23-1.14.69-3s.71-2.83.71-2.92a3 3 0 0 0 0-.49c0-.43-.15-.65-.45-.65s-.49.17-.67.51a4.82 4.82 0 0 0-.42 1.1 1.75 1.75 0 0 1-.21.65s-.12 0-.29 0h-.29a.29.29 0 0 1-.1-.16v-.29a5.77 5.77 0 0 1 .22-.69 6.58 6.58 0 0 1 .36-.85 2.19 2.19 0 0 1 .58-.67 1.16 1.16 0 0 1 .75-.31m0-.75a1.91 1.91 0 0 0-1.23.48 2.85 2.85 0 0 0-.76.9 6.26 6.26 0 0 0-.41 1 7 7 0 0 0-.25.79l-.05.31a.57.57 0 0 0 0 .13 1 1 0 0 0 .32.69.75.75 0 0 0 .53.22h.26a1.15 1.15 0 0 0 .77-.21l.06-.06c-.08.31-.17.67-.27 1.09a26.33 26.33 0 0 0-.71 3.09 1 1 0 0 0 .11.58 1.35 1.35 0 0 0 .42.48 1.37 1.37 0 0 0 .83.26 1.53 1.53 0 0 0 1.45-.91 17.42 17.42 0 0 0 .74-2.7l.58-2.32.07-.12c.57-1 1.22-1.46 2-1.46h.1a.85.85 0 0 1 0 .32 2.69 2.69 0 0 1 0 .54L99 58.1a16.21 16.21 0 0 0-.64 2.77 1.06 1.06 0 0 0 .16.56 1.75 1.75 0 0 0 .35.4 1.32 1.32 0 0 0 .87.31 1.55 1.55 0 0 0 1.46-.91 22.21 22.21 0 0 0 .74-2.7l.57-2.32.07-.12c.57-1 1.22-1.46 2-1.46h.1a1.34 1.34 0 0 1 0 .32 8.66 8.66 0 0 1-.62 2.5 8.92 8.92 0 0 0-.7 2.42 2.32 2.32 0 0 0 .54 1.47 2.17 2.17 0 0 0 1.82.78 2.53 2.53 0 0 0 1.74-.67 4.31 4.31 0 0 0 1-1.24A6.71 6.71 0 0 0 109 59a1.6 1.6 0 0 0 .1-.47c0-.09 0-.9-1.12-.9a1.23 1.23 0 0 0-.7.16.84.84 0 0 0-.28.32 10.13 10.13 0 0 0 .7-3 2.51 2.51 0 0 0-.89-2 3.11 3.11 0 0 0-2.05-.66 4 4 0 0 0-2.62 1 2.13 2.13 0 0 0-.21-.22l-.33-.26a2.76 2.76 0 0 0-.49-.27 2.91 2.91 0 0 0-.66-.17 4.54 4.54 0 0 0-.66-.05 4.07 4.07 0 0 0-2.55.88l-.09-.13a1.8 1.8 0 0 0-.94-.59 4.39 4.39 0 0 0-1-.16Z"/><path d="M112.42 61.77a3 3 0 0 1-2.5-1.1 4 4 0 0 1-.88-2.51 5.32 5.32 0 0 1 .37-2 4.76 4.76 0 0 1 1-1.53 5.75 5.75 0 0 1 1.3-1A6.1 6.1 0 0 1 113 53a4.07 4.07 0 0 1 1.16-.19h.11a2.89 2.89 0 0 1 1.66.46 1.7 1.7 0 0 1 .76 1.49c0 .87-.4 2-2.29 2.49a10.12 10.12 0 0 1-2.51.27h-.37c0 .1 0 .22-.07.36-.06.38-.1.72-.12 1a1.74 1.74 0 0 0 .31 1.09 1 1 0 0 0 .85.37A4.21 4.21 0 0 0 114 60a4 4 0 0 0 1.52-1.1.69.69 0 0 1 .5-.3.76.76 0 0 1 .5.27.91.91 0 0 1 .28.45.74.74 0 0 1-.25.61 5.92 5.92 0 0 1-.59.53 6.73 6.73 0 0 1-.88.59 5.17 5.17 0 0 1-1.23.49 5.6 5.6 0 0 1-1.43.23Zm1.81-7.53a2.09 2.09 0 0 0-.94.21 2.41 2.41 0 0 0-.7.52 4.5 4.5 0 0 0-.48.69 3 3 0 0 0-.22.45 6.15 6.15 0 0 0 2.56-.39 1 1 0 0 0 .63-.93c-.03-.26-.16-.55-.85-.55Z"/><path class="cls-1" d="M114.16 53.19h.16a2.46 2.46 0 0 1 1.41.4 1.33 1.33 0 0 1 .6 1.18q0 1.62-2 2.13a10.56 10.56 0 0 1-2.43.26 3.31 3.31 0 0 0-.69 0s0 .24-.1.64a6.26 6.26 0 0 0-.13 1 2.14 2.14 0 0 0 .38 1.34 1.38 1.38 0 0 0 1.14.51h.07a4.39 4.39 0 0 0 1.61-.34 4.33 4.33 0 0 0 1.67-1.2c.11-.12.18-.18.22-.18s.12.06.23.16a.6.6 0 0 1 .18.26c0 .06 0 .15-.16.29a6 6 0 0 1-.54.49 7.2 7.2 0 0 1-.84.56 4.67 4.67 0 0 1-1.14.45 5.2 5.2 0 0 1-1.37.18 2.68 2.68 0 0 1-2.21-1 3.58 3.58 0 0 1-.8-2.28 5 5 0 0 1 .35-1.88 4.29 4.29 0 0 1 .88-1.41 5.24 5.24 0 0 1 1.22-.94 6.26 6.26 0 0 1 1.26-.57 3.56 3.56 0 0 1 1-.16m-2.39 3.3a6.63 6.63 0 0 0 2.86-.44 1.39 1.39 0 0 0 .83-1.25c-.07-.62-.48-.94-1.23-.94a2.52 2.52 0 0 0-1.92.87 5.07 5.07 0 0 0-.53.74 3.37 3.37 0 0 0-.29.65 3.1 3.1 0 0 1-.09.35 1.46 1.46 0 0 0 .37 0m2.39-4.05a4.34 4.34 0 0 0-1.25.2 6.6 6.6 0 0 0-1.42.62 6 6 0 0 0-1.39 1.08 5.23 5.23 0 0 0-1 1.65 5.81 5.81 0 0 0-.4 2.16 4.34 4.34 0 0 0 1 2.75 3.4 3.4 0 0 0 2.79 1.24 5.94 5.94 0 0 0 1.57-.21 5.34 5.34 0 0 0 1.32-.52 7.4 7.4 0 0 0 .92-.63 4.74 4.74 0 0 0 .63-.57 1.1 1.1 0 0 0 .35-.94 1.32 1.32 0 0 0-.39-.64 1.14 1.14 0 0 0-.76-.38 1.08 1.08 0 0 0-.78.43 3.69 3.69 0 0 1-1.38 1 3.86 3.86 0 0 1-1.34.29c-.41 0-.52-.16-.57-.22a1.41 1.41 0 0 1-.22-.88 8.13 8.13 0 0 1 .11-.91v-.05a11.61 11.61 0 0 0 2.62-.28c2.12-.54 2.57-1.85 2.57-2.86a2.07 2.07 0 0 0-.93-1.8 3.25 3.25 0 0 0-1.83-.53h-.16Zm-1.65 3.28a4.29 4.29 0 0 1 .37-.5 1.66 1.66 0 0 1 .58-.43 1.62 1.62 0 0 1 .77-.18c.4 0 .46.09.48.22a.66.66 0 0 1-.44.56 4.46 4.46 0 0 1-1.76.33Z"/><path d="M119.1 61.77a1 1 0 0 1-.61-.19.91.91 0 0 1-.31-.35.56.56 0 0 1-.06-.43 23.38 23.38 0 0 1 .69-3c.59-2.35.7-2.83.71-2.91a2.67 2.67 0 0 0 0-.36c0-.27-.06-.34-.06-.34s-.41.05-.78 1.53c-.06.21-.1.33-.11.36-.09.29-.32.41-.71.41h-.25a.39.39 0 0 1-.27-.1.66.66 0 0 1-.21-.43 2.2 2.2 0 0 1 .06-.37 6 6 0 0 1 .23-.74 7.4 7.4 0 0 1 .38-.9 2.66 2.66 0 0 1 .7-.79 1.68 1.68 0 0 1 1-.38 2.18 2.18 0 0 1 1.36.4 2.07 2.07 0 0 1 .6.64 3.69 3.69 0 0 1 2.56-1 2.8 2.8 0 0 1 1.81.57 2.15 2.15 0 0 1 .75 1.71 9 9 0 0 1-.71 3 9.66 9.66 0 0 0-.67 2.15v.11a1.11 1.11 0 0 0 .69-.53 4 4 0 0 0 .58-1.33c0-.15.19-.42.73-.42s.73.36.73.52a1.25 1.25 0 0 1-.08.37 6.77 6.77 0 0 1-.43 1.1 3.85 3.85 0 0 1-.92 1.13 2.19 2.19 0 0 1-1.45.58 1.86 1.86 0 0 1-1.57-.64 2 2 0 0 1-.46-1.24 9.36 9.36 0 0 1 .67-2.3 9.34 9.34 0 0 0 .65-2.63c0-.69-.26-.69-.42-.69a2.73 2.73 0 0 0-2.39 1.65l-.1.17-.58 2.37a21.42 21.42 0 0 1-.72 2.63 1.17 1.17 0 0 1-1.03.67Z"/><path class="cls-1" d="M119.54 53.19a1.75 1.75 0 0 1 1.09.33 1.46 1.46 0 0 1 .54.61 1.26 1.26 0 0 1 .11.38l.2-.2a3.4 3.4 0 0 1 2.52-1.16 2.38 2.38 0 0 1 1.57.49 1.81 1.81 0 0 1 .62 1.43 8.77 8.77 0 0 1-.69 2.84 10 10 0 0 0-.69 2.3c0 .31.1.47.31.47a.37.37 0 0 0 .16 0 1.5 1.5 0 0 0 .94-.68 4.36 4.36 0 0 0 .63-1.45c0-.1.15-.15.37-.15s.36 0 .36.15 0 .1-.07.27a5.92 5.92 0 0 1-.4 1 3.39 3.39 0 0 1-.83 1 1.81 1.81 0 0 1-1.21.49 1.44 1.44 0 0 1-1.23-.49 1.57 1.57 0 0 1-.38-1 10.9 10.9 0 0 1 .65-2.17 9.84 9.84 0 0 0 .69-2.65c0-.71-.27-1.07-.8-1.07h-.09a3.06 3.06 0 0 0-2.62 1.83l-.13.21-.6 2.43q-.6 2.37-.69 2.55a.78.78 0 0 1-.77.49.61.61 0 0 1-.38-.11.51.51 0 0 1-.2-.22.26.26 0 0 1 0-.18c0-.15.23-1.14.69-3s.7-2.79.72-3a3 3 0 0 0 0-.41c0-.47-.14-.71-.43-.71-.46 0-.84.6-1.14 1.81a3.19 3.19 0 0 0-.11.38c0 .07-.14.11-.35.11h-.25a.34.34 0 0 1-.11-.16 2.52 2.52 0 0 1 .06-.29 5.15 5.15 0 0 1 .21-.69 6.58 6.58 0 0 1 .36-.85 2.29 2.29 0 0 1 .6-.67 1.26 1.26 0 0 1 .79-.31m0-.75a2 2 0 0 0-1.25.47 2.92 2.92 0 0 0-.8.91 6.8 6.8 0 0 0-.4 1 5.21 5.21 0 0 0-.25.79c0 .13 0 .24-.06.31a.57.57 0 0 0 0 .13 1 1 0 0 0 .33.69.75.75 0 0 0 .53.22h.25a1.16 1.16 0 0 0 .84-.28l-.28 1.12a29.59 29.59 0 0 0-.71 3.07 1 1 0 0 0 .12.58 1.26 1.26 0 0 0 .42.48 1.33 1.33 0 0 0 .83.26 1.53 1.53 0 0 0 1.45-.91 22.21 22.21 0 0 0 .74-2.7l.57-2.32.07-.12c.58-1 1.22-1.46 2-1.46h.1a.85.85 0 0 1 0 .32 8.84 8.84 0 0 1-.63 2.5 8.59 8.59 0 0 0-.69 2.42 2.37 2.37 0 0 0 .53 1.47 2.18 2.18 0 0 0 1.83.78 2.53 2.53 0 0 0 1.74-.67 4.15 4.15 0 0 0 1-1.24 6.71 6.71 0 0 0 .45-1.17 1.6 1.6 0 0 0 .1-.47c0-.09 0-.9-1.11-.9a1 1 0 0 0-1 .48 9 9 0 0 0 .7-3 2.5 2.5 0 0 0-.89-2 3.11 3.11 0 0 0-2-.66 3.94 3.94 0 0 0-2.49.88 3 3 0 0 0-.45-.4 2.48 2.48 0 0 0-1.54-.48v.75-.75Zm6.44 6.69.21-.6a5.29 5.29 0 0 1-.21.6Z"/><path d="M130.81 61.77a2.5 2.5 0 0 1-1.22-.32 2 2 0 0 1-.88-1.16 2.38 2.38 0 0 1-.05-.6v-.33l.64-2.62c.28-1.11.44-1.76.54-2.14h-1.37a.36.36 0 0 1-.26-.11.61.61 0 0 1-.21-.49 2.1 2.1 0 0 1 .06-.38 1.24 1.24 0 0 1 .14-.35.52.52 0 0 1 .48-.28h1.59l.27-1.16c0-.14.08-.31.13-.52a3.49 3.49 0 0 1 .14-.52 3.4 3.4 0 0 0 .1-.33 1 1 0 0 1 .24-.48.85.85 0 0 0 .14-.17.78.78 0 0 1 .48-.31 1.84 1.84 0 0 1 .41 0 .91.91 0 0 1 .75.36 1 1 0 0 1 .2.55 5 5 0 0 1-.17.94c-.11.49-.24 1-.37 1.45l-.06.22h1.35a.33.33 0 0 1 .26.11.69.69 0 0 1 .24.46 1.22 1.22 0 0 1-.35.9.36.36 0 0 1-.26.11h-1.65l-.58 2.34c-.58 2.41-.68 2.93-.69 3 0 .3.07.37.07.37a1.36 1.36 0 0 0 1-.5 4.22 4.22 0 0 0 .87-1.39.56.56 0 0 1 .32-.35 1.79 1.79 0 0 1 .36-.05h.11c.63 0 .64.46.64.52a1.19 1.19 0 0 1-.07.34 3.54 3.54 0 0 1-.36.75 5.73 5.73 0 0 1-.65.9 3.82 3.82 0 0 1-1 .85 2.6 2.6 0 0 1-1.33.39Z"/><path class="cls-1" d="M132.15 49.86a.56.56 0 0 1 .45.2.64.64 0 0 1 .12.34 6.38 6.38 0 0 1-.16.86c-.11.48-.23 1-.36 1.42l-.18.67a3.61 3.61 0 0 0 .9 0h.93c.08.09.12.15.12.2a.82.82 0 0 1-.23.63h-1.94l-.65 2.63c-.47 1.93-.71 3-.71 3.11 0 .51.17.76.49.76a1.69 1.69 0 0 0 1.23-.61 4.59 4.59 0 0 0 1-1.52c0-.08.06-.12.09-.13a1.57 1.57 0 0 1 .27 0h.08q.27 0 .27.15a.77.77 0 0 1-.06.21 2.93 2.93 0 0 1-.32.69 5.84 5.84 0 0 1-.62.85 3.25 3.25 0 0 1-.92.76 2.16 2.16 0 0 1-1.1.31 2.12 2.12 0 0 1-1-.27 1.58 1.58 0 0 1-.7-.94 1.92 1.92 0 0 1 0-.49v-.33l.64-2.53c.42-1.7.64-2.56.65-2.57a4.67 4.67 0 0 0-.93 0h-.92c-.08-.08-.13-.14-.13-.18a1.44 1.44 0 0 1 .06-.29 1 1 0 0 1 .09-.25.15.15 0 0 1 .16-.09h1.88L131 52c0-.13.08-.3.13-.52a3.36 3.36 0 0 1 .12-.47c0-.1.07-.22.11-.36a.69.69 0 0 1 .15-.31 2.13 2.13 0 0 0 .18-.22.39.39 0 0 1 .25-.16 1.24 1.24 0 0 1 .33 0m0-.75a2 2 0 0 0-.49.06 1.12 1.12 0 0 0-.7.45l-.1.13a1.35 1.35 0 0 0-.35.65 2 2 0 0 1-.08.28 5.3 5.3 0 0 0-.16.58c0 .2-.08.36-.11.49l-.22.89h-1.29a.91.91 0 0 0-.8.45 1.52 1.52 0 0 0-.18.46 2.27 2.27 0 0 0-.08.47 1 1 0 0 0 .35.71.75.75 0 0 0 .53.22h.89c-.1.4-.24.94-.42 1.68l-.64 2.53a1.1 1.1 0 0 0 0 .18v.33a2.83 2.83 0 0 0 .06.67 2.23 2.23 0 0 0 1 1.36 2.79 2.79 0 0 0 1.4.37 3 3 0 0 0 1.47-.4 4.29 4.29 0 0 0 1.13-.93 6.91 6.91 0 0 0 .68-1 3.91 3.91 0 0 0 .4-.84 1.48 1.48 0 0 0 .09-.44.92.92 0 0 0-1-.9h-.14a1.32 1.32 0 0 0-.44.07.88.88 0 0 0-.57.6 3.86 3.86 0 0 1-.78 1.23 1.56 1.56 0 0 1-.42.32c0-.18.17-.83.67-2.87l.51-2.06h1.35a.75.75 0 0 0 .53-.22 1.55 1.55 0 0 0 .45-1.16 1.1 1.1 0 0 0-.34-.73.75.75 0 0 0-.53-.22H133c.11-.4.21-.81.3-1.22a4.72 4.72 0 0 0 .18-1 1.3 1.3 0 0 0-.26-.77 1.24 1.24 0 0 0-1-.52Z"/><path d="M138.24 61.77a3 3 0 0 1-2.49-1.1 3.92 3.92 0 0 1-.88-2.51 5.32 5.32 0 0 1 .37-2 4.59 4.59 0 0 1 1-1.53 5.75 5.75 0 0 1 1.3-1 6.1 6.1 0 0 1 1.34-.59 4 4 0 0 1 1.15-.19h.12a2.89 2.89 0 0 1 1.66.46 1.7 1.7 0 0 1 .76 1.49c0 .87-.4 2-2.29 2.49a10.18 10.18 0 0 1-2.51.27h-.37c0 .1 0 .22-.07.36a7.06 7.06 0 0 0-.12 1 1.74 1.74 0 0 0 .3 1.09 1 1 0 0 0 .86.37 4.16 4.16 0 0 0 3.06-1.42.68.68 0 0 1 .49-.3.74.74 0 0 1 .5.27.94.94 0 0 1 .29.45.72.72 0 0 1-.26.61 5.61 5.61 0 0 1-.58.53 7.48 7.48 0 0 1-.88.59 5.17 5.17 0 0 1-1.23.49 5.62 5.62 0 0 1-1.52.17Zm1.82-7.53a2.09 2.09 0 0 0-.94.21 2.28 2.28 0 0 0-.7.52 3.89 3.89 0 0 0-.48.69 3 3 0 0 0-.22.45 6.15 6.15 0 0 0 2.56-.39 1 1 0 0 0 .63-.93c-.03-.26-.16-.55-.85-.55Z"/><path class="cls-1" d="M140 53.19h.16a2.46 2.46 0 0 1 1.41.4 1.32 1.32 0 0 1 .59 1.18c0 1.08-.67 1.79-2 2.13a10.63 10.63 0 0 1-2.43.26 3.16 3.16 0 0 0-.69 0s0 .24-.11.64a7.39 7.39 0 0 0-.12 1 2.08 2.08 0 0 0 .38 1.34 1.38 1.38 0 0 0 1.14.51h.07a4.44 4.44 0 0 0 1.61-.34 4.33 4.33 0 0 0 1.67-1.2c.1-.12.18-.18.21-.18s.13.06.24.16a.6.6 0 0 1 .18.26c0 .06 0 .15-.16.29a6.44 6.44 0 0 1-.55.49 7 7 0 0 1-.83.56 4.67 4.67 0 0 1-1.14.45 5.26 5.26 0 0 1-1.37.18 2.68 2.68 0 0 1-2.21-1 3.58 3.58 0 0 1-.8-2.28 5.16 5.16 0 0 1 .34-1.88 4.31 4.31 0 0 1 .89-1.41 5.19 5.19 0 0 1 1.21-.94 6.58 6.58 0 0 1 1.27-.57 3.56 3.56 0 0 1 1-.16m-2.4 3.3a6.57 6.57 0 0 0 2.86-.44 1.4 1.4 0 0 0 .84-1.25c-.08-.62-.49-.94-1.23-.94a2.58 2.58 0 0 0-1.11.25 2.49 2.49 0 0 0-.81.62 5.07 5.07 0 0 0-.53.74 3.37 3.37 0 0 0-.29.65c0 .18-.08.3-.09.35a1.41 1.41 0 0 0 .36 0m2.4-4.05a4.41 4.41 0 0 0-1.26.2 6.82 6.82 0 0 0-1.42.62 6.21 6.21 0 0 0-1.38 1.08 4.9 4.9 0 0 0-1 1.65 5.61 5.61 0 0 0-.4 2.16 4.39 4.39 0 0 0 1 2.75 3.43 3.43 0 0 0 2.8 1.24 5.94 5.94 0 0 0 1.57-.21 5.51 5.51 0 0 0 1.32-.52 7.4 7.4 0 0 0 .92-.63 4.74 4.74 0 0 0 .63-.57 1.07 1.07 0 0 0 .34-.94 1.24 1.24 0 0 0-.38-.64 1.14 1.14 0 0 0-.77-.38 1 1 0 0 0-.77.43 3.69 3.69 0 0 1-1.38 1 3.86 3.86 0 0 1-1.34.29c-.41 0-.53-.16-.57-.22a1.41 1.41 0 0 1-.22-.88 8.13 8.13 0 0 1 .11-.91v-.05h.05a11.61 11.61 0 0 0 2.62-.28c2.12-.54 2.56-1.85 2.56-2.86A2 2 0 0 0 142 53a3.19 3.19 0 0 0-1.82-.53H140Zm-1.65 3.28a3.39 3.39 0 0 1 .37-.5 1.66 1.66 0 0 1 .58-.43 1.62 1.62 0 0 1 .77-.18c.4 0 .45.09.47.22s-.08.38-.43.56a4.46 4.46 0 0 1-1.76.33Z"/><path d="M150.08 61.75a2.12 2.12 0 0 1-1.23-.34 1.82 1.82 0 0 1-.6-.56 3.35 3.35 0 0 1-2.17.9 2.84 2.84 0 0 1-2-.83 3.42 3.42 0 0 1-.88-2.57 5.1 5.1 0 0 1 .39-1.91 6.5 6.5 0 0 1 .92-1.65 5.58 5.58 0 0 1 1.84-1.54 4 4 0 0 1 1.7-.43 2.2 2.2 0 0 1 1.41.45l.32-1.31c.3-1.21.42-1.68.47-1.88h-.81a.4.4 0 0 1-.27-.11.63.63 0 0 1-.21-.41s0-.16 0-.39c.13-.47.33-.68.61-.68l1.28-.08c.75-.06 1.18-.09 1.27-.11.47 0 .65.26.65.52 0 .08 0 .17-1.33 5.55s-1.35 5.44-1.37 5.48a.29.29 0 0 0 0 .11c0 .41.1.43.13.43l.15-.09a4.47 4.47 0 0 0 .6-1.54c.09-.32.19-.58.45-.64a.64.64 0 0 1 .27 0h.15c.62 0 .64.46.64.52a2 2 0 0 1-.06.39 7.23 7.23 0 0 1-.58 1.54 2.83 2.83 0 0 1-.6.84 2.14 2.14 0 0 1-.6.34 2 2 0 0 1-.54 0ZM148 54.24a1.4 1.4 0 0 0-.95.45 3.49 3.49 0 0 0-.81 1.33 14.57 14.57 0 0 0-.73 2.89v.15a1.21 1.21 0 0 1 0 .3 1 1 0 0 0 .22.76.8.8 0 0 0 .53.23c.52 0 1.09-.39 1.7-1.17l.1-.12.94-3.76c-.38-1.06-.86-1.06-1-1.06Z"/><path class="cls-1" d="M152.22 48.63c.14 0 .22 0 .22.15s-.45 1.9-1.33 5.46-1.33 5.38-1.35 5.45a.57.57 0 0 0 0 .27c0 .51.17.76.51.76a.91.91 0 0 0 .36-.16 4.12 4.12 0 0 0 .74-1.74c.07-.24.13-.37.18-.38a.53.53 0 0 1 .18 0h.15q.27 0 .27.15a1.22 1.22 0 0 1-.06.29 5.91 5.91 0 0 1-.54 1.46 2.41 2.41 0 0 1-.51.73 2.13 2.13 0 0 1-.5.29 2.36 2.36 0 0 1-.44 0 1.86 1.86 0 0 1-1-.27 1.34 1.34 0 0 1-.54-.56l-.11-.27-.08.07a3.18 3.18 0 0 1-2.17 1 2.46 2.46 0 0 1-1.75-.72 3 3 0 0 1-.76-2.3 4.74 4.74 0 0 1 .36-1.77 6.1 6.1 0 0 1 .75-1.54 5 5 0 0 1 1.7-1.43 3.63 3.63 0 0 1 1.54-.4 1.73 1.73 0 0 1 1.52.76c0 .06.07.08.08.08s.17-.7.49-2 .48-1.94.5-2 0-.25-.12-.29a4.09 4.09 0 0 0-.71-.09h-.38c-.07-.07-.11-.12-.11-.14v-.35c0-.21.14-.34.23-.34l1.31-.09c.85-.06 1.29-.1 1.32-.11m-6 12.09a2.77 2.77 0 0 0 2-1.3l.14-.2 1-3.93c-.28-.95-.73-1.43-1.36-1.43a1.76 1.76 0 0 0-1.21.56 3.73 3.73 0 0 0-.9 1.47 14.69 14.69 0 0 0-.75 3v.2a.62.62 0 0 1 0 .21 1.53 1.53 0 0 0 .33 1.13 1.19 1.19 0 0 0 .78.32m6-12.84h-.15l-1.23.09-1.28.09c-.18 0-.7.09-.92.9v.54a.92.92 0 0 0 .33.67.75.75 0 0 0 .53.22h.34c-.07.3-.19.76-.36 1.46l-.2.82a2.64 2.64 0 0 0-1.17-.25 4.48 4.48 0 0 0-1.86.47 5.75 5.75 0 0 0-2 1.63 7.45 7.45 0 0 0-1 1.76 5.63 5.63 0 0 0-.41 2.05 3.76 3.76 0 0 0 1 2.84 3.19 3.19 0 0 0 2.27.93 3.59 3.59 0 0 0 2.12-.74 2.71 2.71 0 0 0 .44.35 3 3 0 0 0 2.06.33h.1a2.92 2.92 0 0 0 .7-.4 3.31 3.31 0 0 0 .69-1 7.67 7.67 0 0 0 .61-1.63 2.07 2.07 0 0 0 .08-.48.92.92 0 0 0-1-.9h-.15a1.31 1.31 0 0 0-.43.06.83.83 0 0 0-.31.2l.87-3.51c1.35-5.43 1.35-5.51 1.35-5.64a.91.91 0 0 0-1-.9Zm-6.35 11a13.46 13.46 0 0 1 .7-2.76 3.08 3.08 0 0 1 .72-1.19 1 1 0 0 1 .69-.35c.27 0 .46.35.58.71l-.89 3.58-.06.08a2.18 2.18 0 0 1-1.39 1 .4.4 0 0 1-.27-.12.93.93 0 0 1-.09-.51 2.53 2.53 0 0 0 0-.28v-.15Z"/><path d="M154.26 66.09a.38.38 0 0 1-.37-.37V64.2a.38.38 0 0 1 .37-.38h4.39V2.65h-4.39a.38.38 0 0 1-.37-.38V.75a.38.38 0 0 1 .37-.38h6.28a.38.38 0 0 1 .38.38v65a.38.38 0 0 1-.38.37Z"/><path class="cls-1" d="M160.54.75v65h-6.28V64.2H159V2.27h-4.76V.75h6.28m0-.75h-6.28a.76.76 0 0 0-.75.75v1.52a.76.76 0 0 0 .75.75h4v60.43h-4a.75.75 0 0 0-.75.75v1.52a.76.76 0 0 0 .75.75h6.28a.75.75 0 0 0 .75-.75V.75a.75.75 0 0 0-.75-.75Z"/></g></g></svg>
