<svg xmlns="http://www.w3.org/2000/svg" xmlns:xlink="http://www.w3.org/1999/xlink" width="173" height="168" version="1.1" viewBox="0 0 173 168"><defs><polygon id="path-1" points="0 .054 95.57 .054 95.57 61.705 0 61.705"/><polygon id="path-3" points="0 .042 95.57 .042 95.57 11.965 0 11.965"/><polygon id="path-5" points="0 0 61.96 0 61.96 62.159 0 62.159"/></defs><g id="页面-1" fill="none" fill-rule="evenodd" stroke="none" stroke-width="1"><g id="1229" transform="translate(-426.000000, -1588.000000)"><rect id="Rectangle" width="741" height="556" x="142" y="1477" stroke="#979797" stroke-width=".926"/><g id="Group-2" transform="translate(426.000000, 1588.000000)"><g id="5.业务组件/灰色版/箱子" fill-rule="nonzero" transform="translate(0.000000, 93.024793)"><g id="资源-20"><path id="路径" fill="#A3B5D6" d="M14.0570786,41.3488626 L151.02365,41.3488626 L151.02365,72.2550572 C151.02365,73.5894431 148.722528,74.6711766 145.88395,74.6711766 L19.1967782,74.6711766 C16.3582005,74.6711766 14.0570786,73.5894431 14.0570786,72.2550572 L14.0570786,41.3488626 Z"/><path id="路径" fill="#E4EBF7" d="M13.7058658,20.5224163 L0.340505102,45.509992 C-0.167525626,46.4116305 -0.0957910986,47.4717069 0.530514683,48.31791 C1.15682046,49.1641131 2.25013234,49.6781334 3.42646644,49.6794411 L161.153141,49.6794411 C162.355334,49.6794411 163.469461,49.1436151 164.088951,48.2680525 C164.708442,47.39249 164.742667,46.3050697 164.179139,45.4026164 L151.090038,20.5224163 L13.7058658,20.5224163 Z"/><polygon id="路径" fill="#A3B5D6" points="123.417 0 151.09 20.522 13.695 20.522 41.22 0"/><polygon id="路径" fill="#4E5C93" points="41.22 0 41.22 20.522 13.695 20.522"/><polygon id="路径" fill="#4E5C93" points="123.417 0 123.417 20.507 151.09 20.522"/></g></g><g id="5.业务组件/灰色版/表格" transform="translate(24.912000, 12.495868)"><g id="分组" transform="translate(10.331344, 21.981663)"><g transform="translate(0.000000, 11.165934)"><mask id="mask-2" fill="#fff"><use xlink:href="#path-1"/></mask><path id="Fill-3" fill="#E4EBF7" d="M93.1147589,61.7052146 L2.45538615,61.7052146 C1.09937881,61.7052146 -3.68313447e-05,60.6024033 -3.68313447e-05,59.2419326 L-3.68313447e-05,0.0541922045 L95.5701819,0.0541922045 L95.5701819,59.2419326 C95.5701819,60.6024033 94.470889,61.7052146 93.1147589,61.7052146" mask="url(#mask-2)"/></g><line id="Stroke-5" x1=".497" x2="95.073" y1="31.407" y2="31.407" stroke="#A3B5D6" stroke-linecap="round" stroke-linejoin="round" stroke-width="1.62"/><line id="Stroke-7" x1="31.782" x2="31.782" y1="72.554" y2="11.173" stroke="#A3B5D6" stroke-linecap="round" stroke-linejoin="round" stroke-width="1.62"/><line id="Stroke-9" x1="63.492" x2="63.492" y1="72.554" y2="11.173" stroke="#A3B5D6" stroke-linecap="round" stroke-linejoin="round" stroke-width="1.62"/><line id="Stroke-11" x1=".497" x2="95.073" y1="52.029" y2="52.029" stroke="#A3B5D6" stroke-linecap="round" stroke-linejoin="round" stroke-width="1.62"/><g transform="translate(0.000000, 0.081165)"><mask id="mask-4" fill="#fff"><use xlink:href="#path-3"/></mask><path id="Fill-1" fill="#253368" d="M95.5701819,11.9646904 L-3.68313447e-05,11.9646904 L-3.68313447e-05,2.50519476 C-3.68313447e-05,1.14484727 1.09937881,0.0419127436 2.45538615,0.0419127436 L93.1147589,0.0419127436 C94.470889,0.0419127436 95.5701819,1.14484727 95.5701819,2.50519476 L95.5701819,11.9646904 Z" mask="url(#mask-4)"/></g><path id="Fill-13" fill="#A3B5D6" d="M8.01727523,5.67159601 C8.01727523,6.83709789 7.07549775,7.78188971 5.91371436,7.78188971 C4.75205375,7.78188971 3.81027627,6.83709789 3.81027627,5.67159601 C3.81027627,4.50621728 4.75205375,3.56142546 5.91371436,3.56142546 C7.07549775,3.56142546 8.01727523,4.50621728 8.01727523,5.67159601"/><path id="Fill-15" fill="#E4EBF7" d="M15.8729468,5.67159601 C15.8729468,6.83709789 14.9311693,7.78188971 13.7693859,7.78188971 C12.6077253,7.78188971 11.6659478,6.83709789 11.6659478,5.67159601 C11.6659478,4.50621728 12.6077253,3.56142546 13.7693859,3.56142546 C14.9311693,3.56142546 15.8729468,4.50621728 15.8729468,5.67159601"/><path id="Fill-17" fill="#E4EBF7" d="M23.7286184,5.67159601 C23.7286184,6.83709789 22.7868409,7.78188971 21.6250575,7.78188971 C20.4633969,7.78188971 19.5216194,6.83709789 19.5216194,5.67159601 C19.5216194,4.50621728 20.4633969,3.56142546 21.6250575,3.56142546 C22.7868409,3.56142546 23.7286184,4.50621728 23.7286184,5.67159601"/></g></g><g id="5.业务组件/灰色版/感叹号-copy" transform="translate(110.720000, 0.000000)"><g id="分组"><g><mask id="mask-6" fill="#fff"><use xlink:href="#path-5"/></mask><path id="Fill-1" fill="#F6BD16" d="M30.9802401,-6.93736413e-06 C13.8702999,-6.93736413e-06 6.91523063e-06,13.9146805 6.91523063e-06,31.0793843 C6.91523063e-06,48.2440188 13.8702999,62.1587756 30.9802401,62.1587756 C48.0901804,62.1587756 61.9604733,48.2440188 61.9604733,31.0793843 C61.9604733,13.9146805 48.0901804,-6.93736413e-06 30.9802401,-6.93736413e-06" mask="url(#mask-6)"/></g><path id="Fill-3" fill="#FFF" d="M32.2453747,39.9592104 L31.1389378,39.9592104 C30.2223239,39.9592104 29.4792824,39.2137906 29.4792824,38.294243 L29.4792824,17.2046561 C29.4792824,16.2851085 30.2223239,15.5396887 31.1389378,15.5396887 L32.2453747,15.5396887 C33.1619885,15.5396887 33.90503,16.2851085 33.90503,17.2046561 L33.90503,38.294243 C33.90503,39.2137906 33.1619885,39.9592104 32.2453747,39.9592104"/><path id="Fill-5" fill="#FFF" d="M32.2453747,46.7843835 L31.1389378,46.7843835 C30.2223239,46.7843835 29.4792824,46.0389637 29.4792824,45.1194161 L29.4792824,44.0094378 C29.4792824,43.0898902 30.2223239,42.3444704 31.1389378,42.3444704 L32.2453747,42.3444704 C33.1619885,42.3444704 33.90503,43.0898902 33.90503,44.0094378 L33.90503,45.1194161 C33.90503,46.0389637 33.1619885,46.7843835 32.2453747,46.7843835"/></g></g></g></g></g></svg>